<svg id="Слой_1" data-name="Слой 1" xmlns="http://www.w3.org/2000/svg" viewBox="0 0 575.8 756.2"><defs><style>.cls-1{fill:#273238;}.cls-2{fill:#899294;}.cls-3{fill:#ced7dc;}.cls-4{fill:#435e63;}.cls-5{fill:#445e63;}.cls-6{fill:#455c63;}.cls-7{fill:#465b63;}.cls-8{fill:#445d64;}.cls-9{fill:#445d65;}.cls-10{fill:#bcc7cb;}.cls-11{fill:#bdc7cb;}.cls-12{fill:#bdc7cc;}.cls-13{fill:#536e78;}.cls-14{fill:#cdd6dc;}.cls-15{fill:#cdd7dc;}.cls-16{fill:#546e7a;}.cls-17{fill:#546e79;}</style></defs><path class="cls-1" d="M0,210.06V27.18c1.31-4.61,1.25-9.51,3.93-13.84C9.33,4.61,17.49,1.06,27.18,0h63c12.4,1.11,20.9,7.55,25.86,18.88a30.73,30.73,0,0,1,2.64,12.58c0,8.43,0,16.87,0,25.31,0,2.43-.37,5,1.24,7.42,3.64,2.17,7.85,1,11.86,1.19,4.91.28,9.86-.35,14.71,1.14,5.27,1.62,8.32,4.92,9.19,10.41.57,3.61.8,7.34,2.27,10.52,2.2,1.71,4.53,1.4,6.76,1.41,14.2,0,28.41-.12,42.6.09,4.88.08,7.38-1.57,8.87-6.37,5.18-16.69,17.64-25.76,34.85-25.81q37-.09,74.09,0c16.51,0,29.42,9.29,34.19,25,1.58,5.23,4.06,7.27,9.55,7.15,14.4-.29,28.81,0,43.21-.12,7.17,0,7.8-.76,7.77-7.78,0-9.76,4-14.43,13.71-15.44,4.91-.52,9.87-.14,14.8-.24,2.43,0,5,.44,7.25-1,1.89-2.06,1.39-4.64,1.42-7,.08-8.65,0-17.29.05-25.93.1-11.35,5.36-20,14-26.94C475.43,1,480.84,1.7,485.6,0h63c4.65,1.34,9.59,1.3,14,4.11,8.53,5.47,12.24,13.42,13.21,23.07V210.06c-.87,11.14-6.32,19.23-16.15,24.48a30.78,30.78,0,0,1-14.72,4c-18.12,0-36.24.17-54.36-.06s-33.26-15.76-33.46-33.74c-.11-9.06-.15-18.13,0-27.18.1-5-1.8-7.17-6.88-7-5.55.18-11.12.19-16.67-.05-9-.39-13.07-4.54-13.51-13.43-.43-8.47-.6-8.69-8.86-8.71-14.41,0-28.82,0-43.24,0-4.12,0-7,.94-8.36,5.45-5,16.92-17,25-34,26.58-7.69.73-7.91.84-7.93,8.43q-.06,44.77,0,89.56c0,7.47.51,7.88,8.1,8.24,20.75,1,35,15.56,35.08,36.26q.18,54.66,0,109.33c-.08,22.17-13.72,36.29-35.8,37.41-6.7.34-7.36.9-7.37,7.7q-.1,45.39,0,90.8c0,6.79.43,7.1,7.39,7.68,17.28,1.42,29.55,9.38,34.56,26.65,1.08,3.73,3.26,5.38,7.14,5.38q23.48,0,47,0c4.43,0,6.1-1.92,6.35-6.31.7-12.78,4-15.77,16.67-15.91,4.53-.05,9.06-.13,13.58,0s6.92-1.56,6.78-6.44c-.24-8,.32-16.06-.33-24.08-1.56-19.24,14.38-37.09,33.69-37.38,16.26-.25,32.53-.08,48.8-.07,21.91,0,31.66,7.64,36.54,28.51V729c-1.31,4.61-1.34,9.48-3.92,13.86-5,8.51-12.87,11.89-22,13.32H485.6c-13-1.12-21.49-8.17-26.36-20a32.34,32.34,0,0,1-2.15-12.69q.06-12.35,0-24.7c0-8.76-.45-9.16-8.95-9.23-4.53,0-9.06,0-13.58,0-10-.12-13.56-3.32-15-13.28-.36-2.42.39-4.95-.73-7.21-1.81-2-4.19-1.69-6.4-1.7-14.82-.07-29.64.1-44.45-.11-4.76-.07-6.91,1.93-8.42,6.22-6.4,18.17-17.5,25.95-36.57,26q-35.81,0-71.63,0c-17.41,0-29.91-9-35.05-25.57-1.44-4.65-3.62-6.71-8.68-6.62-14.81.25-29.63,0-44.45.12-6.47,0-7,.69-6.81,7.15.24,10.12-4.25,14.86-14.31,15-5.56.09-11.12.11-16.67,0-4.75-.08-6.66,2.12-6.65,6.74,0,9.26-.07,18.53,0,27.79.09,11.16-5.1,19.57-13,26.84-4.48,4.1-10.29,3.63-15.48,5.28H28.42c-1-.94-2.25-.51-3.41-.62C10.09,753.68,3.14,746.3,0,729V546.14C.87,535,6.31,526.91,16.15,521.67a30.85,30.85,0,0,1,14.71-4c18.32,0,36.64-.2,55,.06,17.44.25,32.42,15.41,32.83,33,.22,8.85,0,17.7.1,26.55.1,7.33,1,8.23,8.17,8.34,4.73.07,9.47,0,14.2,0,9.55.19,13.77,3.88,15.53,13.28.48,2.58-.28,5.41,1.39,7.71,1.84,1.49,4,1.19,6,1.2,14.82,0,29.64,0,44.46,0,4,0,6.51-1.33,7.69-5.45,4.89-17,17.12-24.86,34-26.57,7.75-.79,7.94-.81,7.95-8.37q.06-44.76,0-89.54c0-7.61-.46-8-8-8.32-21-.94-35.16-15.54-35.22-36.69q-.16-55,0-109.92c.07-20.65,14.39-35.42,35-36.38,7.89-.36,8.22-.65,8.23-8.7q.06-44.46,0-88.92c0-7.83-.19-7.84-7.69-8.61-17.05-1.75-29.62-9.34-34.39-26.87-.75-2.78-2.12-5-5.4-5-17.07-.09-34.15-.47-51.22.21a3.46,3.46,0,0,0-1.85.95c-1.32,2.62-1.28,5.77-1.78,8.77-1.29,7.64-5.46,11.62-13.22,12.06-6,.34-11.94.15-17.9.13-4.16,0-6,1.82-6,6,0,9.26.1,18.52,0,27.79-.28,19.2-15,34-34.09,34.14-17.7.16-35.41.07-53.11,0-11.4,0-19.89-5.59-27-14C.93,220.3,1.71,214.82,0,210.06Z"/><path class="cls-2" d="M26,756.2a1.31,1.31,0,0,1-.22-1,2.05,2.05,0,0,1,2.69,1Z"/><path class="cls-3" d="M235.83,435a39.21,39.21,0,0,1-.58-4.81q-.06-51.84,0-103.7c0-5.15.16-10.32,4.11-14.4,2.68-2.77,5.84-4.65,9.75-4.65q38.55,0,77.12.21c2.1,1.81,3.73,3.83,3.32,6.88-1.49,11.07-.59,22.2-.68,33.3-.17,20,.06,40-.09,59.92-.14,19.36-10.5,29.61-30,29.74-17.92.12-35.83.05-53.74,0C241.76,437.52,238.39,437.75,235.83,435Z"/><path class="cls-3" d="M235.93,666c-1.53-3.78-.62-7.71-.66-11.56-.13-13.34-.12-26.68,0-40,.08-12.17,5.61-17.72,17.68-17.7,24.82,0,49.64.18,74.46.27,1.47,2,1.41,4.24,1.41,6.5,0,12.52-.3,25.05.07,37.56.42,14.68-13.86,26.92-26.67,26.46-19.68-.71-39.4-.19-59.11-.18C240.61,667.36,238.12,667.49,235.93,666Z"/><path class="cls-3" d="M235.81,145.89c-1.25-18.5-.63-37-.34-55.51.11-6.73,4.58-10.84,11.44-12.64a6.68,6.68,0,0,1,3.61-.51q35.43,0,70.87,0c6,0,7.21,1.07,7.32,7.17.24,13.15.42,26.3-.06,39.44-.46,12.7-11.69,23.87-25.11,24.32-20.53.69-41.08.28-61.62.17A8.56,8.56,0,0,1,235.81,145.89Z"/><path class="cls-4" d="M98.34,149.93c-6.75,2.59-16,2-15.49,12.76.25,5.18,2.18,6,15.48,7.28v19c-1.94,1.86-4.83,1.56-7.32,2.3-5.08,1.5-8.67,4.22-8.14,9.93s4.07,8.21,9.8,7.71a11.16,11.16,0,0,1,2.77.44c1.13,1.86.29,3.06-.8,4.06-2.94,2.68-6.29,5-10.31,5.11-19.9.36-17.46,2.34-17.48-15.23q-.07-87.42,0-174.84c0-3.48-.36-7,1.78-10.12C82.9,15.2,97.89,19.58,98.39,32.19c-1.24,1.94-3.3,2.1-5.34,2.42-8,1.25-11.37,5.2-10.22,11.7.85,4.75,6.08,7.22,12.87,6.12a19.89,19.89,0,0,1,2.54,0c1.21,6.39.46,12.81.45,19.09-2.66,1.75-5.31,2.07-7.89,2.64-5.6,1.24-8.82,5.6-7.9,10.6s4.44,7.38,10.37,6.88c1.64-.13,3.27-.34,5.18.89a95.52,95.52,0,0,1,.12,17.73c-2.94,2.31-6.09,2.68-9,3.7-5.53,2-8,5.72-6.58,10.7,1.49,5.47,5.76,6.43,10.64,6.11,1.4-.09,2.73-1.08,4.69.06Z"/><path class="cls-4" d="M67.38,538.51c18.13-3.24,30.27.71,31,13.88-2.07,1.71-4.82,1.74-7.31,2.45-6.5,1.85-9.54,6.19-8.13,11.7,1.17,4.56,5.82,6.89,11.8,5.93a8.72,8.72,0,0,1,1.83-.13,9.4,9.4,0,0,1,1.75.56c1.06,5.18.48,10.7.4,16.16,0,3.24-2.86,3.38-5.23,4.18-3.63,1.22-7.93,1.66-10,5.43-3.1,5.57.33,11.75,7,12.73,2.39.35,4.87.06,7.85.06v18.75c-1.59,1.63-3.83,2-6,2.41-7.27,1.5-10.5,5.35-9.44,11.19.93,5.09,5.88,7.71,12.56,6.69a24.08,24.08,0,0,1,3,0,113.63,113.63,0,0,1,.1,19.52c-7,2.45-17.1,1-15.63,12.65,1.17,9.22,9.15,6.09,15.34,7.31,1.14,6,.47,12,.45,17.82-2.29,2.07-4.76,2.3-7.16,2.81-6.47,1.37-9.45,5.07-8.73,10.61.65,5.08,4.76,7.65,11.49,7.24a6.93,6.93,0,0,1,2,.59,11.83,11.83,0,0,1-8.92,8.45c-17.67,4.62-20.54,2.45-20.54-15.41q0-84.32-.09-168.65C66.74,548.46,68.66,543.74,67.38,538.51Z"/><path class="cls-5" d="M20.21,210c2-1.66,3.95-1,5.73-1.08,4.35-.27,6.87-2.58,7.43-6.79.62-4.67-.32-9.57-5.49-10.21-8.34-1-10.66-5.29-9.49-12.84.45-2.91-2.21-6,0-8.64,2.07-1.5,3.84-.12,5.62-.16,5.07-.1,9-2.54,10.07-7.42.85-4-1.14-7.6-5.13-9.58-3.25-1.6-8.41-.59-9.74-4.39-1.87-5.39-1-11.27-.35-16.66,2.21-1.69,4.35-1.23,6.34-1.18,5.2.13,7.6-2.93,8.07-7.48s-1-9.14-6.25-9.75c-7.68-.89-10-4.68-8.7-11.9.53-2.95.09-6.07.09-9.27,1.74-1.77,4.13-1,6.31-1.06,3.85-.18,7.6-.5,8.54-5.25,1.05-5.31-.7-10.52-5.78-11.42-8.52-1.5-10-6.22-9.11-13.42.33-2.6-1.77-5.14-.27-8,2.17-1.59,4.67-.21,7-.29,4.27-.14,7.24-1.93,8.1-6.09s.27-8.27-4-10.69c-.71-.4-1.6-.47-2.3-.88C24,33.83,18.36,35.63,18.7,30a11.75,11.75,0,0,1,9.5-10.92c6.5-1.48,13.28-2.64,20.64-1.16v199.6C36,221.49,26.12,218.93,20.21,210Z"/><path class="cls-6" d="M526.84,538.48c16.82-3.08,29.28-.14,30,13.79-1.59,1.77-3.88,2-6.06,2.47-6.32,1.38-10.26,6.59-8.94,11.82,1.14,4.54,6.51,7.05,12.44,5.86a24.26,24.26,0,0,1,2.79-.18c.63,5,.3,9.83,1,14.64s-3,6.18-7,6.79c-5.63.87-9.1,3.92-8.67,9.93.34,4.85,2.69,8.16,8.17,8,2,0,4.08,0,7.08,0,0,5.53.07,10.79,0,16.05-.06,3.53-2.94,4.11-5.53,4.74-8.11,2-10.73,5-9.71,11.39.87,5.41,4.68,7.34,12.86,6.56.36,0,.75.26,1.49.55,1.17,5.28.62,10.82.42,16.3-.15,4.2-4.13,4.36-6.93,4.72-6.07.77-7.88,4.48-7.9,9.81,0,5,2.52,7.64,7.56,7.75,2,0,4.07,0,6.9,0,.35,6.21.68,12,1,17.93-1.93,2.59-5.06,2.52-7.68,3.46-6.2,2.22-9.2,5.92-8.27,10.54,1,5,5.33,7.58,11.78,7a6.31,6.31,0,0,1,1.68.33c-4,9.07-14.37,12.42-28.51,9Z"/><path class="cls-5" d="M18.92,572.51c8.63,1,13.31-1.23,14.4-6.19,1.53-7-.3-8.73-14-13.61C17.79,540.22,30,535,48.87,538.3V737.71c-11.16,3.17-23.44,0-28.47-7.29,1.1-2.25,3.22-1.34,4.88-1.37,4.31-.07,7.2-2,8-6.2.88-4.55.12-10.12-4.78-10.64-12.17-1.29-10.33-9.5-10-17.32.05-1.41.27-2.82.39-4,2.13-2,4.51-1.27,6.69-1.36,4.6-.18,7.32-2.39,7.85-7,.56-4.76-.74-8.53-5.75-10.24-9.18-3.14-9.18-3.16-9.19-12.85,0-2.82,0-5.64,0-8.74,5.85-.19,13.13,2.22,14.78-6,2.32-11.59-8.09-11.22-14.54-14V613.16c2-2,4-1.51,5.78-1.46,4.75.12,8.1-1.69,8.86-6.61.82-5.25-.71-9.42-6.41-11-1.77-.48-3.59-.8-5.39-1.2-2-.44-3.66-1.54-3.6-3.63C18.08,583.81,18.56,578.33,18.92,572.51Z"/><path class="cls-7" d="M555.19,209.81c-3.31,7.83-12.18,10.52-28.14,8.25V18.81c14.11-4.39,31,1,29.83,13.38-2.08,2.11-5.1,2.29-7.75,3.26-6,2.17-8.26,5.9-6.56,11.87,1.55,5.45,5.66,6.57,10.72,5.31,1.42-.36,2.8-.78,4.14.58V70.74c-1.8,2.46-3.88,2.8-5.86,3.26-7.38,1.69-10,4.84-9.18,11.27.56,4.6,4.48,6.89,11.37,6.66.8,0,1.59,0,2.33,0,1.55,4.55,1.76,12.19.47,19.27-6.36,2.45-16.08,2.38-14.51,13.21.8,5.51,5,6.83,14.73,6,1.2,6.39.28,12.81.5,18.75-2.33,2.11-4.59,2.38-6.76,3-6.3,1.76-10.08,6.74-8.78,11.41s6.41,7.13,12.4,6.23a22.42,22.42,0,0,1,2.57,0,55.38,55.38,0,0,1,.28,17.47c-.49,4-4.81,3.3-7.54,4.05-4.6,1.27-7.12,3.68-7.12,8.61,0,6.32,1.94,8.51,8.25,9C552.14,209,553.9,208.35,555.19,209.81Z"/><path class="cls-8" d="M477.3,592.09a100.51,100.51,0,0,1,.13-19.68c6.84.87,13.93,1.8,15.45-7.23,1-6.06-.57-7.16-15.08-12.53,1.11-12.38,11.43-17.55,29.77-14.31V737.43c-8.67,4.52-22.79.84-28.46-8,.89-1.89,2.35-.9,3.71-.78,5,.43,9.64-2.66,10-7,.44-5-1.09-8.87-6.67-10.19-3-.69-6-1.3-8.63-3.2-1.11-3-.47-6.12-.58-9.16-.1-2.84,0-5.69,0-8.92,6.63-1.75,16.86,1.94,15.9-9.76-.71-8.68-8.46-8.75-15.37-10.2-1-6.39-.56-12.83-.24-20,6.94,1.29,14.13,1.94,15.53-6.48,1.89-11.46-8.83-10.06-15.5-13.12a84.06,84.06,0,0,1,.21-18.41c6.38-1.52,15.88,1.93,15.45-9.41C492.57,593.12,484,594.46,477.3,592.09Z"/><path class="cls-9" d="M477.3,52.53a50.69,50.69,0,0,0,6.77.54c4.48-.26,8-2.25,8.83-7,.86-5-.82-8.88-6.27-10.38-3.13-.85-6.18-2-9.11-2.92.1-13.26,15-17.15,30.23-14.45V217.24c-12,4.42-24.22,1.16-27.72-7.16,1.29-1.92,3.32-1.13,5-1.19,4.29-.15,7.31-2.18,7.76-6.38.46-4.39-.34-8.73-5.2-10.79-3.17-1.34-7.67-.1-9.66-3.15-2.42-3.71-.75-8.42-1-12.69-.1-2-.53-4.13,1.13-6.19,5.84.27,13.33,1.7,14.6-6.59,1.69-11.07-8.6-10.45-15.35-13.21a95.79,95.79,0,0,1,0-19.38,48.07,48.07,0,0,0,6.88.38c4.32-.38,8.26-1.75,8.71-6.89.44-4.93-.95-9-6.45-10.4-2-.49-4-.95-6-1.31s-3.43-1.55-3.42-3.69c0-5.49-.69-11,.51-16.55,3.88-1.07,7.7,1.64,11.45-1.36,2.73-2.17,4.15-4,4.06-7.51-.09-3.82-1.86-7.1-5.16-7.51-11.4-1.42-12-8.89-11-17.69C477.13,56.38,477.16,54.76,477.3,52.53Z"/><path class="cls-10" d="M235.83,435q31.75,0,63.51-.08c17.21,0,26.83-9.57,26.85-26.67,0-28.78.09-57.55-.06-86.33,0-4.76,2.06-9.51.08-14.27,8.17.78,12.9,5,14,12.86A79.22,79.22,0,0,1,340.5,331q0,49.06,0,98.12c0,14.82-4.86,19.74-19.42,19.75-23.25,0-46.49,0-69.74-.06C241.79,448.74,236.73,444.07,235.83,435Z"/><path class="cls-11" d="M235.81,145.89c21.19,0,42.38-.32,63.56,0,15.61.23,27.62-11,26.95-26.81-.57-13.31-.12-26.66-.12-41.33H246.91c1.7-1.7,3.88-1,5.84-1q34.88-.1,69.73,0c12,0,17.92,5.87,18,17.74.12,15.43.16,30.85,0,46.28-.15,14-5.18,18.76-19.19,18.76-23.45,0-46.89.05-70.34-.05C242,159.35,236.8,154.56,235.81,145.89Z"/><path class="cls-12" d="M235.93,666c2.64-1.5,5.54-1.26,8.41-1.26,19.28,0,38.59-.61,57.84.24,11.06.49,24.63-10.67,24.12-23.88-.47-12.29-.1-24.62-.09-36.92,0-2.46-.21-5,1.16-7.19,8.64,2,12.8,6.09,13,14.58.36,17.65.4,35.32,0,53-.2,9-6.57,14.62-15.72,14.66q-37,.13-73.94,0C242.08,679.18,237.08,674.49,235.93,666Z"/><path class="cls-13" d="M297,288.76c-6.66.43-12.31.87-18.37-.24v-110c6.09-1.37,11.93-.64,18.37-.6Z"/><path class="cls-13" d="M278.93,467.63c5.78-1,11.43-.62,17.89-.2V577.75c-5.9,1.1-11.52.76-17.89.32Z"/><path class="cls-3" d="M117,149.33V86.9h18.55v62.43Z"/><path class="cls-14" d="M440.26,86.72h18.41v62.77H440.26Z"/><path class="cls-15" d="M135.55,669.4h-18.4V607c6-1,12-.46,18.4-.28Z"/><path class="cls-15" d="M458.71,606.82v62.46H440.28V606.82Z"/><path class="cls-16" d="M217.14,126.86H154a56.6,56.6,0,0,1,0-17.67h62.8C218,115,217.46,120.58,217.14,126.86Z"/><path class="cls-17" d="M155,647a23.41,23.41,0,0,1,0-17.75h61.79c1.09,6.07.49,11.69.44,17.75Z"/><path class="cls-16" d="M421,109.19c1.08,6.3,2.73,11.9-.37,17.67H359c-1.14-6-.46-11.64-.46-17.67Z"/><path class="cls-17" d="M358.93,646.83a58.06,58.06,0,0,1,0-17.56h62.19c.32,5.78.64,11.34,1,17.56Z"/></svg>