<?xml version="1.0" encoding="utf-8"?>
<!-- Generator: Adobe Illustrator 26.1.0, SVG Export Plug-In . SVG Version: 6.00 Build 0)  -->
<svg version="1.1" id="Layer_1" xmlns="http://www.w3.org/2000/svg" xmlns:xlink="http://www.w3.org/1999/xlink" x="0px" y="0px"
	 viewBox="0 0 50 50" style="enable-background:new 0 0 50 50;" xml:space="preserve">
<style type="text/css">
	.st0{fill:none;stroke:#FFFFFF;stroke-width:2;stroke-linecap:round;stroke-linejoin:round;stroke-miterlimit:10;}
	.st1{display:none;fill:none;}
</style>
<path class="st0" d="M34.5,33.6c-1.8,2-4.2,3.4-7,4"/>
<path class="st0" d="M37.1,20.8c0.5,1.3,0.7,2.8,0.7,4.2c0,1.5-0.3,2.9-0.7,4.3"/>
<path class="st0" d="M27.6,12.5c2.7,0.6,5.1,2,6.9,4"/>
<path class="st0" d="M15.6,16.3c1.8-1.9,4.1-3.3,6.8-3.8"/>
<path class="st0" d="M12.9,29.2c-0.4-1.3-0.7-2.7-0.7-4.2c0-1.5,0.2-2.8,0.7-4.1"/>
<path class="st0" d="M22.6,37.6c-2.7-0.5-5.2-1.9-7-3.9"/>
<rect y="0" class="st1" width="50" height="50"/>
<path class="st0" d="M25,7c9.9,0,18,8.1,18,18s-8.1,18-18,18c-9.9,0-18-8.1-18-18S15.1,7,25,7 M25,1C11.7,1,1,11.7,1,25
	s10.7,24,24,24s24-10.7,24-24S38.3,1,25,1L25,1z"/>
<path class="st0" d="M27.3,42.4l0.5-9.7c0.9-0.3,1.7-0.8,2.5-1.4l8.6,4.7 M10.8,35.9l8.8-4.7c0.8,0.7,1.6,1.2,2.6,1.5l0.6,9.7
	 M8.6,18l8.3,5.6c-0.1,0.5-0.1,0.9-0.1,1.4s0.1,1,0.1,1.4l-8.4,5.6 M22.9,7.6l-0.6,9.7c-1,0.3-1.9,0.9-2.6,1.5L11,14.1 M39.2,13.9
	l-8.9,4.8c-0.7-0.6-1.6-1.1-2.5-1.4l-0.5-9.7 M41.3,32.1l-8.2-5.6c0.1-0.5,0.2-1,0.2-1.5s-0.1-1-0.2-1.5l8.2-5.6"/>
<circle class="st0" cx="25" cy="25" r="3"/>
</svg>
