<svg id="Layer_1" data-name="Layer 1" xmlns="http://www.w3.org/2000/svg" viewBox="0 0 50 50"><defs><style>.cls-1,.cls-2{fill:none;}.cls-1{stroke:#fff;stroke-linecap:round;stroke-linejoin:round;stroke-width:2px;}</style></defs><path class="cls-1" d="M34.5,33.57a12.76,12.76,0,0,1-6.95,4"/><path class="cls-1" d="M37.07,20.75a12.74,12.74,0,0,1,0,8.5"/><path class="cls-1" d="M27.56,12.46a12.73,12.73,0,0,1,6.94,4"/><path class="cls-1" d="M15.61,16.31a12.75,12.75,0,0,1,6.81-3.85"/><path class="cls-1" d="M12.89,29.15A13,13,0,0,1,12.2,25a12.68,12.68,0,0,1,.69-4.15"/><path class="cls-1" d="M22.58,37.57a12.81,12.81,0,0,1-7-3.91"/><rect class="cls-2" width="50" height="50"/><path class="cls-1" d="M25,7A18,18,0,1,1,7,25,18,18,0,0,1,25,7m0-6A24,24,0,1,0,49,25,24,24,0,0,0,25,1Z"/><path class="cls-1" d="M27.3,42.44l.5-9.72a8.21,8.21,0,0,0,2.48-1.45L38.92,36m-28.09,0,8.83-4.71a8.34,8.34,0,0,0,2.62,1.51l.58,9.69M8.59,18l8.32,5.6a7.48,7.48,0,0,0,0,2.88L8.52,32.09M22.86,7.57l-.58,9.69a8.34,8.34,0,0,0-2.62,1.51L11,14.13m28.23-.24-8.9,4.84a8.21,8.21,0,0,0-2.48-1.45l-.5-9.71m14,24.55-8.18-5.6a7.3,7.3,0,0,0,0-3l8.15-5.58"/><circle class="cls-1" cx="25" cy="25" r="3"/></svg>