<svg id="Слой_1" data-name="Слой 1" xmlns="http://www.w3.org/2000/svg" viewBox="0 0 380.58 695.73"><defs><style>.cls-1{fill:#80b849;}.cls-2{fill:#80b848;}.cls-3{fill:#6ba439;}.cls-4{fill:#6ba33a;}.cls-5{fill:#83ba4b;}.cls-6{fill:#ebf2dc;}.cls-7{fill:#ebf3dd;}.cls-8{fill:#c73c24;}.cls-9{fill:#cb2c21;}.cls-10{fill:#b2d173;}.cls-11{fill:#2a292e;}.cls-12{fill:#29282d;}.cls-13{fill:#29292d;}</style></defs><title>car1</title><path class="cls-1" d="M670,164.32c31.64-3.5,63.29-2.72,94.94-.09,2,.16,4,.23,5.68,1.44a5.16,5.16,0,0,1-3.26,3.67c-15.22-.81-30.49-1-45.71-1.24-21.84-.3-43.82-.08-65.46,3.93-9.54,1.76-13.07,9.73-16.52,17.25-9,19.68-16.06,40.14-22.14,60.89-8.52,29-16.53,58.21-23.44,87.68-4,7.19-3.32,14.43-1,22.06,9.12,29.44,17.73,59,26.23,88.66,5.21,25.11,6.49,50.66,7.52,76.12,1.58,38.85-1.56,77.56-6.34,116.11a53.75,53.75,0,0,0,.18,15.82c-8,12.06-8.22,26.47-11.68,39.88-4,15.48-6.52,31.32-10.81,46.73-1.58,5.65-.88,11.24-.79,16.88-2.28,16.15-5.07,32.22-6.79,48.45-.35,3.35-1,6.59-3.53,9.12-6.9,2.24-8.9-4-12.7-7.25-7.05-7.95-6.69-17.83-6.23-27.28,1.84-38.06.34-76.14.89-114.21,0-3.63-.21-7.3.84-10.84,1.4-4.55,5.39-6.47,9-8.74,6.75-4.2,13.8-7.93,20-13,4.27-3.48,7.19-7.64,8.08-13.22,3-19,1.42-38.37,4.12-57.42.86-6-2.49-9.7-7.87-12.38-9.46-4.71-19.51-8.3-28.3-14.36-2.07-3-3.45-6,.89-8.26,9.3-.63,15.94,5.89,23.85,9,10.52,4.15,11,3.93,10-7.36-1.32-14.22-.29-28.49-1.28-42.77-1.65-23.88-9.75-46-16-68.7-5.08-18.57-11.26-36.82-16.39-55.29-2-2.4-1.49.25-1.75,1-.82,2.2-.19,5.45-4,5.33-.92-12.61-.92-12.6-14.2-11.74-4.66.31-9.32.52-14,.81-2.73.18-5.61.26-7.06-2.49a8.43,8.43,0,0,1,.89-9.41,20.72,20.72,0,0,1,5.17-4.61c7.25-4.73,14.38-9.72,22-13.78,5.4-2.87,7.41-6.35,7.42-12.48.06-28.32.76-56.64.9-85A78.82,78.82,0,0,1,576,205.83a14.93,14.93,0,0,0,8.54-4.47,96.91,96.91,0,0,1,32.84-21.94c6.12-2.47,9.05-8.78,15-11.19,9.89.53,19.41-3,29.29-2.64C664.38,164.37,667.44,165.84,670,164.32Z" transform="translate(-534.05 -161.97)"/><path class="cls-2" d="M768.09,167.84l2.57-2.17c10.91-.33,21.53,2.08,32.28,3.32,4.89.57,9.8.88,14.7,1.31,18.66,13.2,41.38,21.25,53.45,41-.23-1-1.1-3.45,2.89-3.18,4.19,7.92,4.87,16.5,4.8,25.23-.25,29.32-.29,58.65-.84,88-.12,6.16,1.84,9.59,7.18,12.5,7.29,4,14,8.94,21,13.55a43.92,43.92,0,0,1,5.48,4.32c3.36,3.11,3.75,7.13,2.12,11-1.43,3.42-5,2.81-7.94,2.57-8.91-.74-17.8-1.72-27.18-2.65-2.26,13.4.28,26.8-2.15,39.87-4.78-4.5-2.63-10.38-3-15.7-.4-6.17.21-12.38-.37-18.56a1,1,0,0,0-.62-.69c-.21,0-.49.35-.73.66-9.07,27.59-17.83,55.19-26.9,82.67-6.24,18.9-8.61,38.29-9.77,57.86-.56,9.63-2,19.18-2.23,28.82-.17,6.52,2.24,8.48,8.48,5.73,8.16-3.6,15.84-8.6,25.13-9.21,3.11.61,5.11,2.08,4.41,5.65-6.25,7.09-15.19,9.44-23.47,12.57-10.69,4-15.87,10.1-14.82,22.35,1.35,15.87-.08,31.88,1.84,47.86,1,8.53,4.54,14.16,11,19,7.69,5.78,16.8,9.65,23.26,17.13a18,18,0,0,1,2.35,9.58c.14,42.87.47,85.75-2,128.58-.29,5-1.06,9.92-3.81,14.29-4.19,4.11-5.14,12.74-14.15,10.17-4.51-13.69-4-28.1-5.67-42.18-.68-5.59-.9-11.21-2.49-16.65,1.37-12.91-2.69-25.1-5.37-37.4-4.82-22.1-7.18-44.74-14.62-66.27-3-29.38-5.75-58.93-5.37-88.33.5-39.73,2.52-79.59,10.21-118.82,9.28-29.56,16.61-59.7,25.4-89.41a54.86,54.86,0,0,0,2.12-17.79c0-13.55-5.27-25.94-8.64-38.72-8.71-33.06-18.07-65.94-30.29-97.92-1-2.48-2.1-4.89-3-7.37-6.41-17.38-16.12-30.43-37.16-29.51C773.35,171.05,770.15,170.52,768.09,167.84Z" transform="translate(-534.05 -161.97)"/><path class="cls-3" d="M572.27,655.63q-.1,53.76-.23,107.52a60.51,60.51,0,0,1-1.39,14.75c-2.19,8.89,1,17.68,2,26.5.34,2.91,4,3.23,5.43,5.52-2,3.33.28,7.55-2.2,10.78-8.33-9.64-10.42-21.25-10.33-33.46q.38-51.93.91-103.84,1.69-152.26,3.5-304.51c0-2.32.24-4.65.37-7,2.91-2.95,1.25-6.72,1.79-10.1.27-1.7.8-3.29,2.69-3.41,2.53-.17,3.15,1.64,3.18,3.78,1.75,52.68-2.31,105.34-.73,158,.12,3.94.78,8-1.13,11.76-3.1,1.82-.88,3.67,0,5.52a71.76,71.76,0,0,1,.91,23.86c-3,26.26-1.21,52.57-1.76,78.85C575.14,645.53,575.51,650.92,572.27,655.63Z" transform="translate(-534.05 -161.97)"/><path class="cls-4" d="M870.13,364.08c.34-4.3,2.6-2.93,4.47-1.31,2.3,2,1.33,4.88,1.38,7.41.21,10.78.31,21.56.45,32.34-.14,31.59-.14,63.19-.46,94.78q-1.22,123.26-2.68,246.51c-.18,16-.59,31.92-.89,47.89-.16,8.8-2,17.14-6.93,24.59-2.68-.23-3.17-2.19-3.4-4.35,5.78-9.5,5.52-20.43,5.71-30.7.7-37.43.29-74.88.32-112.32,0-3.65.29-7.32-2.07-10.49a108.25,108.25,0,0,1-.78-31.82c2.58-23.93,1.17-47.86,1.72-71.79.11-4.91-.76-10.08,2.88-14.31.31-2.94-1.17-4.36-4-4.65,1.83-19.86,1-39.78,1-59.67.11-36.82,1.31-73.59,4-110.32C871,365.29,870.45,364.67,870.13,364.08Z" transform="translate(-534.05 -161.97)"/><path class="cls-5" d="M822.7,848.5c-13.3,4.67-27.3,5.14-41.1,6.43-54.81,5.15-109.38,3.26-163.57-6.83-6.8-1.27-13.7-2.72-19.16-7.58,3.58-2.07,7.34-1.2,10.58.28,6.18,2.83,10.59,1,14.36-4,10.44-.42,20.34,3,30.59,4,32.11,3.18,64.29,5.23,96.55,4,13.92-.52,27.85-1.61,41.74-3,6.59-.65,13.13-2.23,19.82-1.33C816.31,842.63,819.93,845,822.7,848.5Z" transform="translate(-534.05 -161.97)"/><path class="cls-6" d="M632.44,168.23c-4.19,7.47-10.51,11.93-18.42,15.38-11.54,5-22.25,12.07-29.85,22.29-3.81,5.13-5.48,1.07-8.13-.07,9.52-19.26,24.83-31.11,45.77-35.72C625.32,169.34,628.9,168.85,632.44,168.23Z" transform="translate(-534.05 -161.97)"/><path class="cls-7" d="M874,208.16c-2.18,1-1.05,3.81-3.39,5.34-10.37-14.21-24.38-23.94-40.23-31.23a11.94,11.94,0,0,1-6.32-6.14c-1.27-3.08-3.8-4.41-6.4-5.84,24.66,2,43,14.25,55.9,35C874,206,873.85,207.19,874,208.16Z" transform="translate(-534.05 -161.97)"/><path class="cls-8" d="M622.5,838.09c2.06,8.24,1,9.59-6.73,7.59-5.67-1.46-11.22-3.39-16.86-5.14-9.21-4.91-17.32-11-23.06-19.87a51.68,51.68,0,0,1-1.55-5.51c-.47-2.87.26-5.12,3.78-5.24a24.1,24.1,0,0,0,8.15,8.55C597.48,826.55,611.54,829.45,622.5,838.09Z" transform="translate(-534.05 -161.97)"/><path class="cls-9" d="M822.7,848.5c-8.1,0-8.1,0-7.93-6.41a4.9,4.9,0,0,1,3.47-4.44c12-3.75,22.59-10.65,34-15.63,4.36-2.3,6.72-6.54,9.79-10.08l3.41,4.35C856.33,833.82,841.34,843.59,822.7,848.5Z" transform="translate(-534.05 -161.97)"/><path class="cls-10" d="M670,164.32c-2.46,2.44-5.4,1.76-8.31,1.27C664.26,163.6,667.13,163.85,670,164.32Z" transform="translate(-534.05 -161.97)"/><path class="cls-10" d="M830.12,450.19c1,7.73-1.4,15.19-2.45,22.66-3.37,24-6.15,47.95-5.54,72.18.15,6.1-2.21,11.79-1.89,17.76,1.17,21.49,1.09,43,3.54,64.46.91,7.86.22,15.88,2.17,23.71a10.41,10.41,0,0,1-1.72,8.58c-9.94,8-22.28,6.14-33.5,7a769.31,769.31,0,0,1-157.35-3.71c-4.88-.62-10.1-.74-13.42-5.39-4.74-2.68-4.18-7-3.5-11.34,3-19.25,4.46-38.62,6-58,1.59-20.55,1.76-41,1.55-61.56-.16-15.18-1.92-30.29-3.41-45.41-1.1-11.17-1.79-22.35-4.18-33.34,10.58-7.47,23.19-5.62,34.78-6.34,23.21-1.46,46.46-3.82,69.78-2.51,32.52,1.82,65.1,3,97.51,6.47C822.72,445.85,827.12,446.45,830.12,450.19Z" transform="translate(-534.05 -161.97)"/><path class="cls-10" d="M768.09,167.84c8-.54,15.72,2.11,23.68,2.63,7.52.49,12.22,5.61,15.78,12.21,10.65,19.71,17.74,40.79,24.34,62,9,29.11,17.37,58.42,24.78,88a41.06,41.06,0,0,1,1.3,11.78A640,640,0,0,0,792.41,332c-63.32-8.25-126.19-5.54-188.81,6.21-3.82.72-7.73,2.6-11.51-.23.84-13,5.17-25.26,8.5-37.64,7.29-27.15,14.49-54.38,24-80.86,4.83-13.39,9.77-26.75,16.59-39.36,4.47-8.25,11.38-11,20.1-12.18,13.86-1.92,27.86-.81,41.62-2.29,17.6-1.9,34.95,1.69,52.44.54C759.56,165.9,763.85,167.24,768.09,167.84Z" transform="translate(-534.05 -161.97)"/><path class="cls-11" d="M592.09,338c18-5.18,36.51-7.44,55-9.53,28.48-3.23,57.08-5,85.77-4,37.33,1.31,74.36,5,110.85,13.42,5.31,1.22,10.16,3,14.27,6.63a23.51,23.51,0,0,1-.28,11.78q-12.45,44.4-24.89,88.81c-.53,1.88-.78,3.94-2.68,5.12-71.15-8.71-142.39-10.82-213.74-2.43Q602.7,401.46,589,355.15C587.08,348.8,586,342.78,592.09,338Z" transform="translate(-534.05 -161.97)"/><path class="cls-12" d="M620,657.46c47.66,8,95.68,9,143.84,7.32,20.24-.7,40.41-2,60.42-5.24,5.73.91,4.53,6.1,5.27,9.5,3.1,14.3,5.55,28.74,8.38,43.1,2.26,11.42,4.52,22.85,7.2,34.17,1.28,5.39,1.61,10.47-.68,15.57-.59,7.07-6.64,7.72-11.46,9.15-15.37,4.56-31.29,6.66-47.18,7.63-32.47,2-64.9,3.47-97.56.88-24.89-2-49.7-3.76-74.08-9.22-6.86-1.54-14.84-2.13-18.09-10.39-2.43-4.64-2.56-9.43-1.21-14.44,7-26,12.06-52.33,17.75-78.57C613.44,662.87,612.73,656.86,620,657.46Z" transform="translate(-534.05 -161.97)"/><path class="cls-10" d="M596,759.93c5.7,5.21,13.09,6.35,20.14,8,20.14,4.62,40.62,6.72,61.21,8.11a727.53,727.53,0,0,0,104.71-.16c16.91-1.3,33.73-3.3,50.19-7.63,4.56-1.2,9-2.48,12.12-6.32a10.83,10.83,0,0,1,3.46,8c0,17.52,3.62,34.72,4.43,52.16-7.35,8.62-17.81,11.79-27.8,15.71-3.32,1.31-7,1.66-9.71,4.36a611,611,0,0,1-96.9,5.91c-18.52-.32-36.91-2.13-55.35-3.64a293.84,293.84,0,0,1-40-6.27c-9.21-2.94-18.28-6.22-26.6-11.24-3.68-2.23-7.42-4.48-9.68-8.38,2-13.88,4.06-27.75,5.9-41.66C592.89,771,593.45,765.27,596,759.93Z" transform="translate(-534.05 -161.97)"/><path class="cls-13" d="M576.13,532c-2.57-2.68-2.29-6.05-2.25-9.37q.95-76.67,1.92-153.33c0-2.5-.88-5.45,2.19-7.08,8.26,28.06,16.15,56.23,24.91,84.12a201.22,201.22,0,0,1,8.65,49c.93,15.94,1.27,31.92,1.83,47.88a34.33,34.33,0,0,1-.56,4.53C599.7,543.75,588.61,536.17,576.13,532Z" transform="translate(-534.05 -161.97)"/><path class="cls-13" d="M572.27,655.63c-.29-37.06.47-74.12,1.4-111.17.06-2.54-.64-5.44,2.43-7,10.18,4.8,20.22,9.94,30.6,14.27,5.53,2.32,7.37,5.57,7,11.36-1.45,20.48-2.53,41-3.85,61.48a15.06,15.06,0,0,1-6.34,11.88C593.47,643.5,583.7,650.93,572.27,655.63Z" transform="translate(-534.05 -161.97)"/><path class="cls-13" d="M870.13,364.08c3,2.66,1.7,6.22,1.67,9.35-.53,51.06-1.23,102.11-1.74,153.17,0,3.95-.7,7.11-4.18,9.26l-33.8,14c-2.76-2-1.83-4.49-1.77-6.59q.95-31,4.39-61.77c2-18.36,9.06-35.42,14.49-52.87C855.91,407,863.13,385.59,870.13,364.08Z" transform="translate(-534.05 -161.97)"/><path class="cls-12" d="M869.85,540.51c.55,37-.87,73.92-1.42,110.88,0,2.53.7,5.48-2.4,7q-13.21-9-26.42-17.94c-5-3.4-7.35-8-7.87-14.22-1.72-20.6-1.86-41.22-2.1-61.86-.06-5,1.34-7.94,6.21-9.77C847.34,550.33,858,544.08,869.85,540.51Z" transform="translate(-534.05 -161.97)"/><path class="cls-12" d="M724.17,479.89c14,0,27.93-.18,41.89.05,12.61.21,18.94,6.56,19.18,19.19.15,7.64-.19,15.29-.57,22.92-.55,11.34-6.91,17.67-18.49,17.69-20.28,0-40.55-.39-60.83-.67-8.31-.12-16.62-.26-24.92-.56-11.52-.42-17.81-6.62-18.13-18-.2-7.3-.12-14.63.08-21.94.34-12.86,7-19.53,19.92-19.74,14-.22,27.92-.05,41.87-.05Z" transform="translate(-534.05 -161.97)"/></svg>