<svg id="Слой_1" data-name="Слой 1" xmlns="http://www.w3.org/2000/svg" viewBox="0 0 379.3 695.48"><defs><style>.cls-1{fill:#f8ab14;}.cls-2{fill:#f8f6de;}.cls-3{fill:#cf241f;}.cls-4{fill:#ffcf0b;}.cls-5{fill:#fece0a;}.cls-6{fill:#2a292e;}.cls-7{fill:#29282d;}.cls-8{fill:#2a292d;}.cls-9{fill:#ce211e;}</style></defs><title>car3</title><path class="cls-1" d="M871.26,206.09c3.61,9.46,4.67,19.24,4.58,29.35-.22,28,.2,55.95-.21,83.92-.1,6.7,2,10.37,7.94,13.09,7.87,3.58,15.34,8,23,12.1,3.32,1.77,6.11,3.88,6.81,8,1.22,7.33-.79,9.94-8.29,9.39-8-.59-15.9-1.63-23.82-2.61-3.87-.48-5.6,1-5.42,4.91.13,3,0,6,0,9q.16,205.32.35,410.64c0,8.37-.24,16.67-3.52,24.53-.75,1.81-1.18,3.87-3.08,5-4.52-.38-5.75,3.83-8.44,6s-5.46,4.65-7.58-.64c-2.27-19.67-3.56-39.45-7.19-58.94.55-18-5.63-34.77-9.17-52S831,673,825.43,656.2c-4.48-37.28-8.16-74.67-6.67-112.21,1-26.16,2-52.43,6.38-78.36,1-5.75.87-11.21-2-16.42,8.75-7.73,9.62-18.85,12.49-29.11,5.81-20.76,10.94-41.7,16.52-62.52,1.38-5.15,2.43-10.33,1.7-15.71-3.56-20.4-11-39.72-16.76-59.47-7.49-25.55-16.84-50.49-27-75.12-1-2.46-2.32-4.8-3.31-7.26-7.07-17.41-18.68-26.38-38.74-26.54-14.1-.12-28.53-2.12-42.7-2.69C702.21,169.88,679,172,656,176c-8.29,1.41-12.15,7.66-15.63,14.16-10.76,20.06-17.12,41.83-24.17,63.31-7.78,23.72-13.38,48.07-20.66,71.93-1.18,3.86-1,7.91-1.92,11.81-5.76,8.17-4.46,16.33-1.41,25.37,6.58,19.47,12.51,39.17,18.4,58.87,3,9.94,4.47,20.62,13.37,27.74-2.4,5.06-2.12,10.34-1.26,15.65,7.12,44.25,6.87,88.88,5.48,133.41-.61,19.44-1.19,39.22-6.36,58.32a54.09,54.09,0,0,0-4.64,14.11q-6.49,33.69-14.24,67.11c-1.82,7.8-2.84,15.64-1.95,23.65-2.61,19-5.57,37.94-7.31,57-1.19,4-3.54,4-6.7,2.08-2.37-1.42-3.93-4.73-7.53-3.47a7.25,7.25,0,0,1-2.36.76c-5.72-7.85-7.69-16.85-7.77-26.32-.15-18.64-.15-37.28-.16-55.92q-.12-181.76-.22-363.51c0-13.09,1.47-13.39-13.21-11.09-4.6.71-9.23,1.34-13.87,1.68-5.92.42-7.68-1.6-7.43-7.64.19-4.84,2.51-8,6.78-10.17,6.54-3.29,12.84-7.08,19.47-10.16,6.11-2.83,8.6-6.68,8.46-13.84-.53-26.29-.07-52.6-.34-78.89-.13-11.76.8-23.25,4.9-34.35,16.18-14.08,36.23-22.71,52.18-37.05,3.26-2.93,7-1.09,10.17-2.86,17.58-1.09,34.94-4.37,52.56-5.3a520.43,520.43,0,0,1,58.85,0c23.92,1.46,47.66,4.53,71.43,7.32a67.52,67.52,0,0,0,18.24,13.05c9.11,4.68,17.56,10.55,24.45,18.32C864.19,204.08,866.94,206.56,871.26,206.09Z" transform="translate(-534.38 -161.58)"/><path class="cls-1" d="M823.69,847.48c-5.4,3.06-11.55,2.84-17.39,3.66a610.76,610.76,0,0,1-180.8-1.67c-4.24-.66-8.58-1.17-12.34-3.58l.77-1.2c5.84-1.07,11.69-2.14,15.86-7.05,8.45-1,16.48,1.76,24.71,2.68a617.08,617.08,0,0,0,152.13-1.44,44.5,44.5,0,0,1,10.93-.58C822.24,839.59,822.31,844,823.69,847.48Z" transform="translate(-534.38 -161.58)"/><path class="cls-2" d="M636,167.7c-4.33,1.82-9.55,2-11.19,8.09-.76,2.79-4.12,4.14-6.89,5.35-15.37,6.7-28.84,16-38.9,29.38-2.24-.76-1.13-6.63-5.37-2.91-.5-5.12,4-7.56,6.44-10.79,12.51-16.59,29-26.91,49.94-29.36A37.46,37.46,0,0,1,636,167.7Z" transform="translate(-534.38 -161.58)"/><path class="cls-2" d="M871.26,206.09c-2.35.7-1.19,3.75-3.75,5-10.71-13.73-24.57-23.68-40.63-30.7a13,13,0,0,1-8-10.64c19.72,1.25,34.75,10.82,46.34,26.31C867.54,199.18,870.12,202.22,871.26,206.09Z" transform="translate(-534.38 -161.58)"/><path class="cls-3" d="M823.69,847.48c-5.45-.61-4.43-4.44-4-8a4.63,4.63,0,0,1,3-3.6c11.65-3.31,21.25-11.1,32.71-14.78,4.12-1.88,5.89-6.07,8.9-9,2.68-2.66,3.89-.71,5.23,1.31-8.05,17.11-22,27-39.62,32.37-2,1.23-4.69-.22-6.46,1.77Z" transform="translate(-534.38 -161.58)"/><path class="cls-1" d="M613.16,845.89A45.28,45.28,0,0,1,591,834a2.84,2.84,0,0,1,2-1.73c7.77,2.84,15.81,5.25,21,12.49Z" transform="translate(-534.38 -161.58)"/><path class="cls-1" d="M591,834a25,25,0,0,1-10-10.15l1.15-1c5.52,1.15,9,4.3,9.75,10.06Z" transform="translate(-534.38 -161.58)"/><path class="cls-1" d="M581,823.89a9.78,9.78,0,0,1-4-6.07l1-.81c3.59.46,5.13,2.31,4,5.94Z" transform="translate(-534.38 -161.58)"/><path class="cls-1" d="M823.49,847.52c1.73-2.1,4-2.11,6.46-1.77A6.69,6.69,0,0,1,823.49,847.52Z" transform="translate(-534.38 -161.58)"/><path class="cls-4" d="M619.52,657.3c2-14.39,2.72-28.92,4.32-43.32,3.22-28.85.85-57.69,1.64-86.51.38-13.58-2.27-26.94-3.52-40.4-1-10.85-1.63-21.72-4.23-32.35-1.19-4.88,3.48-4.77,5.66-6.77,3.16-4.24,8.08-4.71,12.57-4.95,37.75-2,75.35-6.88,113.37-3.29,17.45,1.65,35.16,1.29,52.71,2.7,7.47.6,15.39-.1,21.64,5.5,4.65,1.63,6.94,4.69,5.84,9.76-2.94,13.56-3.19,27.48-5.45,41.14a25.07,25.07,0,0,0-.47,3.94c.09,25.52-4.53,51.07-1.59,76.45,1.68,14.49.81,29,2.91,43.49,1.64,11.3,3.66,22.9,2.67,34.55-2.28,3.38-5.88,4.33-9.53,4.74-16.54,1.87-33,4.64-49.71,4.48-16.34-.15-32.51,3.12-48.88,2.08-29.55-1.86-59.24-1.81-88.62-6.08C626.55,661.84,622.11,661.62,619.52,657.3Z" transform="translate(-534.38 -161.58)"/><path class="cls-5" d="M591.63,338.32c-1.83-11.47,4.08-21.4,6.7-31.91a851.37,851.37,0,0,1,31.54-100.63A149.25,149.25,0,0,1,642.6,181c4.92-7.91,12.78-8.32,19.95-9.12,18.76-2.07,37.67-4.18,56.49-4,15.13.17,30.45.76,45.56,3.18,7.16,1.15,14.5.66,21.76,2.13,5.73,1.15,9.35,3.75,12.71,8.39,10.33,14.21,16.1,30.53,22.3,46.63,13.49,35,24,71.06,34.37,107.11.61,2.12,2.46,4.26-.23,6.25-17.61-3.22-35-7.26-52.81-9.72-64.86-9-129.32-6.38-193.55,5.66C603.41,338.6,597.61,341.37,591.63,338.32Z" transform="translate(-534.38 -161.58)"/><path class="cls-6" d="M591.63,338.32c28.16-7,56.83-10.48,85.68-12.86a589.53,589.53,0,0,1,94.71.13,558.37,558.37,0,0,1,72,10.5,28,28,0,0,1,11.5,5.5c2,3.34,2.09,6.73,1.08,10.51-8,29.85-15.9,59.71-23.55,89.64-1.4,5.46-4.75,6.38-9.35,6.17-66.76-7.19-133.53-8.66-200.29,0-5.34.67-8.08-1.22-9.74-6.86q-12.78-43.33-26.56-86.37C584.87,347.76,585.4,342.5,591.63,338.32Z" transform="translate(-534.38 -161.58)"/><path class="cls-7" d="M619.52,657.3c16.87,3.9,34.12,4.9,51.29,5.94a854.21,854.21,0,0,0,103.45,0c17.86-1.09,35.73-2.47,53.33-6,3,1.73,3.18,4.87,3.76,7.75,5.57,27.32,10.75,54.72,17.61,81.76a20.22,20.22,0,0,1-.89,12.69c-1.21,7.59-7.75,8.5-13.3,10.12-18.28,5.34-37.21,7.29-56.06,8.5-24.48,1.58-49,3.74-73.61,2.29-29.8-1.74-59.77-2.36-88.94-9.76-6.23-1.58-13.4-2.11-16.57-9.36a19.54,19.54,0,0,1-1.6-14.5c6.75-27.13,11.85-54.62,17.48-82C616.07,661.83,616.1,658.65,619.52,657.3Z" transform="translate(-534.38 -161.58)"/><path class="cls-5" d="M599.59,761.23c6.89,5.23,15.24,6.38,23.33,8.06,25.51,5.29,51.44,6.82,77.37,7.55,37.29,1.06,74.53,0,111.52-5.5a196.28,196.28,0,0,0,26.3-5.7,19.24,19.24,0,0,0,10-6.2c1.81,2,3.28,4.44,3.24,7-.24,18.35,5.6,36.23,4.13,54.65-7.22,7.16-16.43,10.81-25.65,14.44l-10.08,3.94c-5.67,3.48-12.32,2.19-18.42,3.25a174.82,174.82,0,0,1-27.58,2.9c-21.52.3-43,3.18-64.56,1.64-25.31-1.81-50.87-1.45-75.79-7.48-1.89-.46-4-.22-6-.31-14.36-1.35-27.41-5.29-35.78-18.34-.72-11.9,1.37-23.5,3.29-35.17,1.12-6.76,1.19-13.69,2.62-20.45C597.89,763.87,598.2,762.33,599.59,761.23Z" transform="translate(-534.38 -161.58)"/><path class="cls-7" d="M615.32,549.19c-13.06-5.82-24.53-11-36.08-16.05-4.07-1.76-3.55-5.11-3.56-8.41q0-37.49-.09-75c0-28.65,0-57.31,0-86.22,3.11.6,3.16,3.1,3.76,5,9.39,30.18,18.69,60.39,28.13,90.55,3.22,10.27,4.17,20.87,4.92,31.49C613.73,509.53,615.66,528.42,615.32,549.19Z" transform="translate(-534.38 -161.58)"/><path class="cls-7" d="M830.82,546.62c.54-13.74,1.45-27.93,1.6-42.12.42-38.73,15.48-74,26-110.27,3-10.37,6.53-20.58,10.19-32,2,4.35,1.41,7.35,1.41,10.27.08,49.6,0,99.21.34,148.81.06,7.38-1.8,11.62-9,14.18-7.81,2.79-15.2,6.73-22.79,10.12C836.54,546.51,834.57,548.05,830.82,546.62Z" transform="translate(-534.38 -161.58)"/><path class="cls-8" d="M870.19,537.56V657.29c-12.25-7.54-23.3-13.9-32.94-22.44-2.55-2.26-3.42-5.55-3.78-9-2.12-20.17-2.21-40.44-3.15-60.67-.24-5.36,1.13-10,6.42-12.39C847.25,548,857.79,543.21,870.19,537.56Z" transform="translate(-534.38 -161.58)"/><path class="cls-7" d="M575.79,657.05V539c8.28,1.53,15.12,5.66,22.24,8.87,5.74,2.59,13.33,3.56,16.57,8.59s.79,12.33.95,18.64c.38,16-1.76,31.92-2.26,47.9-.21,6.74-2.85,12.15-8.61,16C595.65,645.05,586.94,651.62,575.79,657.05Z" transform="translate(-534.38 -161.58)"/><path class="cls-9" d="M591.63,821.15c7,7.49,16.44,10.81,25.63,14.51,3.35,1.35,6.77,2.56,10.15,3.83-.06,7.94-.06,7.93-6.79,6.58-2.2-.45-4.41-.84-6.62-1.26L591.93,833l-9.82-10a15.39,15.39,0,0,0-4-5.93c.13-4,.7-7.24,5.46-3.11C586.28,816.29,588.19,819.57,591.63,821.15Z" transform="translate(-534.38 -161.58)"/></svg>