<svg id="Слой_1" data-name="Слой 1" xmlns="http://www.w3.org/2000/svg" viewBox="0 0 404.72 747.91"><defs><style>.cls-1{fill:#707f87;}.cls-2{fill:#29292e;}.cls-3{fill:#91a2ac;}.cls-4{fill:#fbfafb;}.cls-5{fill:#fafafb;}.cls-6{fill:#c7d1db;}.cls-7{fill:#29282d;}.cls-8{fill:#d1dfe6;}.cls-9{fill:#2a292e;}.cls-10{fill:#6f7d86;}.cls-11{fill:#2e2e33;}.cls-12{fill:#707f86;}.cls-13{fill:#6f7e87;}.cls-14{fill:#c5d2da;}.cls-15{fill:#95a5ae;}.cls-16{fill:#96a7af;}.cls-17{fill:#98a9b1;}.cls-18{fill:#97a8b1;}.cls-19{fill:#2c2b30;}</style></defs><title>car5</title><path class="cls-1" d="M647.48,867.89c-3.27-2.34-7-1.63-10.65-1.64-17.33-.06-34.68-.59-52,.12s-21.28-5.67-21.24-20.88c.31-97.31.16-194.61.17-291.92q0-94.47,0-189c0-3.25.8-6.67-1.38-10.26-8.31,1.42-16.79,2.91-25.29,4.32q-4.92.81-9.89,1.3c-3.69.37-5.41-1.35-5.69-5.13-.64-8.73,3.68-16,12.23-19.48,8-3.25,16.06-6.48,24.27-9.21,4.42-1.47,6.41-3.66,6.62-8.47.87-19.3,2.14-38.57,3.19-57.86,1.42-26.27,2.62-52.56,4.2-78.82,1.52-25.24,21.51-44,47.55-44.84,9.32-.29,18.66-.09,28-.09,59,0,118,.23,177,0,28.63-.12,47.44,21.33,49.29,41.79.78,8.62,1.25,17.27,1.72,25.92,2.06,37.91,4.16,75.82,6,113.75.22,4.45,1.93,6.54,5.82,8,9.39,3.41,18.69,7.06,28,10.62,3.9,1.48,7,3.82,8.4,8,1.54,4.72,4.15,10,.9,14.3-2.94,3.85-8.15,1.3-12.27.72-8.23-1.15-16.44-2.6-24.58-4.31-4.27-.9-5.44.9-5.42,4.61,0,3,0,6,0,9q0,237.93.16,475.87c0,18.12-4.22,22.72-21.82,22.11-17-.59-34-.18-51-.12-7.76,0-7.77.14-8,7.51,0,1.33-.08,2.66,0,4,.22,4.13-1.46,6.34-5.83,6-1-.07-2,0-3,0q-69,0-138-.07c-2.36,0-5.42,1.37-7-2,4.48-3.91,10-3.13,15.23-3.14,39.58-.08,79.15.07,118.73-.17,4.78,0,13,2.5,13.14-4.67.1-7.52-8.22-4.7-12.9-4.72-40.9-.25-81.8-.18-122.71-.12C655.37,868.86,651.38,869,647.48,867.89Z" transform="translate(-521.45 -136.01)"/><path class="cls-2" d="M647.48,867.89c2.65-2.94,6.19-1.91,9.39-1.91q66.84-.11,133.68-.05c8.35,0,11.94,5.6,8.83,13.43a3.16,3.16,0,0,1-2.88,2.24c-2,.13-4,.18-6,.18l-142.65-.1Z" transform="translate(-521.45 -136.01)"/><path class="cls-3" d="M865.26,177.45c3.15,2,2.62,5.23,2.45,8.12-1.05,18.66,1.74,37.18,2.5,55.76,1,24.85,2.11,49.76,4.08,74.54,1.51,19,1.36,37.89,1.38,56.82q.26,235,.2,470c0,15.71-1.83,17.11-16.74,17.08q-136.5-.29-273-.09c-14.67,0-16.26-1.49-16.26-15.73,0-166-.3-332,.45-498,.08-16.38-.37-33.23,3.2-49.59a7.36,7.36,0,0,0,.12-2c-1.11-19.33,2-38.49,2.36-57.78.43-21.53,2.51-43,4-64.54.06-.86,1-1.67,1.51-2.51,3.2,1.24,4.91-1.05,6.79-2.9C599,156,612.24,151,627.08,151.37c7.19.17,11.75-3.19,16.41-7.44H648c2.9,2.24,6.32,1.7,9.59,1.7q65.16.06,130.34,0c3.26,0,6.69.53,9.57-1.73l2.31-.21c5,9.86,13.36,11.94,23.79,11.61a56.44,56.44,0,0,1,28.51,7C858.45,165.67,863.58,170.06,865.26,177.45Z" transform="translate(-521.45 -136.01)"/><path class="cls-4" d="M865.26,177.45c-10.82-14.61-26.21-19.23-43.43-19.84-1.65-.06-3.31-.07-5-.1-13.37-.2-13.37-.19-17-13.81,10.9-1.39,21.83-.94,32.69,0C850.61,145.22,865.14,160.54,865.26,177.45Z" transform="translate(-521.45 -136.01)"/><path class="cls-5" d="M643.49,143.93c-1.81,4.92-2.88,9.93-10.32,9.59-19.85-.9-37.08,5.19-49.56,21.23-3.19-1.22-1.36-3.64-2.14-5.2,5.55-15.15,17-23,32.29-26.18,10-.72,20-1.83,29.85.58Z" transform="translate(-521.45 -136.01)"/><path class="cls-6" d="M797.54,143.91c-.09,1.78-.64,3.35-2.63,3.59a49.16,49.16,0,0,1-5.95.19c-44.08,0-88.17.06-132.25-.08-3.12,0-7.77,2.17-8.67-3.67Z" transform="translate(-521.45 -136.01)"/><path class="cls-3" d="M643.61,144l-29.85-.58C622.88,140.57,637.28,140.85,643.61,144Z" transform="translate(-521.45 -136.01)"/><path class="cls-7" d="M855.69,555.78q0,135.48,0,271c0,1.67,0,3.33,0,5-.29,7.83-.62,8.34-8.84,8.34-21,0-42-.26-63-.24q-90,.07-180,.28c-13.57,0-13.61.06-13.61-13.82q0-130,0-260c0-4.28-.81-8.71,1.46-12.75,4.74-3,10-3.18,15.39-3.18q116.22,0,232.42.07C845.4,550.48,851.81,549.48,855.69,555.78Z" transform="translate(-521.45 -136.01)"/><path class="cls-8" d="M592.06,310c-4-3.54-2.2-8.08-1.78-12.17,1.69-16.49,3.62-32.94,5.53-49.4,1.79-15.47,3.72-30.93,5.48-46.4.56-5,.25-10,1.23-14.89,2.88-14.13,9.56-19.22,24.51-19.43l25-.38c3.29-2.95,7.36-2.59,11.32-2.59q58.61,0,117.23,0c3.94,0,8-.38,11.19,2.84,9,0,18,0,27,.14,15.69.2,23.28,7.07,24.88,22.56,2.81,27.06,5.09,54.18,8.6,81.15,1.11,8.53,1.19,17.18,3,25.7,1,4.72,2.86,10.58-1.88,15a3.83,3.83,0,0,1-4.45-.6c-2.88-3.81-3.83-8.44-5.22-12.85-10.95-34.8-22.6-69.39-31.73-104.74-1.45-2-1.49-4.12-.54-6.61-1.44,3.14-.35,5.57,1.26,7.93q9.69,38.49,19.91,76.84c2.55,9.61,4.93,19.27,7.49,28.88.9,3.37,2.61,7.11-1.34,10-6.7,2.16-13.19-.31-19.74-1-22.83-2.38-45.71-3.92-68.59-5.6-43.09-3.18-85.69,1.72-128.46,4.33a37,37,0,0,0-10.13.48,6.06,6.06,0,0,1-4.56-1.49c-1.56-2.9-.78-5.88,0-8.74,9.15-33.28,17-66.91,26.57-100.08.27-.92.69-1.9.36-1.75-2.38,9.79-5.74,20.35-8.59,31.08-6.5,24.42-14.52,48.37-22.37,72.37-1.25,3.82-2.8,7.52-6.53,9.72A4.6,4.6,0,0,1,592.06,310Z" transform="translate(-521.45 -136.01)"/><path class="cls-8" d="M829.67,406c4.13,1.78,6.59,4.05,6.54,9.43-.32,32.61-.14,65.23-.18,97.85,0,3.5,1,7.69-4.32,8.59-3.82,3.57-8.65,3-13.23,3q-94.72.14-189.44,0c-4.58,0-9.42.53-13.21-3.1-4-.55-4.24-3.46-4.21-6.64,0-6.32,0-12.64,0-19,0-27.26.18-54.54-.2-81.8-.08-5.5,1.58-8.63,6.45-10.44,7.15-5.36,15.81-4.93,23.85-5.1,27.88-.6,55.71-3.73,83.63-2.28,28.83,1.51,57.7,2.27,86.49,4.5C817.93,401.52,824.61,401.17,829.67,406Z" transform="translate(-521.45 -136.01)"/><path class="cls-9" d="M829.67,406c-70.54-6.52-141.14-8.27-211.8-2-5.32.25-8-2.15-9.82-7.37-7.87-22.47-16.27-44.76-24.49-67.1-5-13.67-4.71-14.43,8.5-19.5l3.69-.44c3.88-1.72,7.43-5.36,12.2-2.2h3.75c2.65-1.37,5.77.16,8.39-1.37,29.77-2.91,59.57-5.4,89.49-5.54,41.58-.2,83,2,124.12,8.72a48.83,48.83,0,0,0,5.94.26c4-2.26,7.16-.3,10.3,1.92l3.41.82c1.18.51,2.33,1.11,3.54,1.52,9.24,3.1,10.41,5.27,7.17,14.69-8,23.27-16.24,46.45-24,69.78C838.22,403.6,835.77,406.83,829.67,406Z" transform="translate(-521.45 -136.01)"/><path class="cls-10" d="M615.83,521.77c3-.12,6-.36,9-.36q99,0,197.92,0c3,0,6,.25,9,.38,5.77,9.9,13.68,18.2,20.55,27.28,1.56,2,3.89,3.62,3.43,6.67-2.27-2.4-5.19-2.61-8.26-2.61q-126.36.11-252.71.14c-1,0-2,.19-3,.28Z" transform="translate(-521.45 -136.01)"/><path class="cls-11" d="M578.29,529.08V339.67c2.31,1.84,2.82,4.26,3.61,6.55q9.69,28.3,19.45,56.58a35.13,35.13,0,0,1,2.17,11.67c-.07,33.28.05,66.56.07,99.84,0,9.21,0,9.28-9.45,11.65C589.06,527.23,584.15,529.46,578.29,529.08Z" transform="translate(-521.45 -136.01)"/><path class="cls-7" d="M869.75,527.5c-7.76.54-14.11-2.87-20.88-4.11a4.14,4.14,0,0,1-3.53-4.2c-.13-2-.12-4-.12-6q0-47.42,0-94.81a44.91,44.91,0,0,1,2.11-14.71c6.62-19.5,13-39.07,19.53-58.61a6.42,6.42,0,0,1,2.87-3.76Z" transform="translate(-521.45 -136.01)"/><path class="cls-12" d="M649.8,155.83c-.09-3.18.09-6.15,4.41-6.17,1.66,0,3.31,0,5,0q63.63,0,127.25,0c4.37,0,10-1.51,9.32,6.27-2.93,2.13-6.34,1.72-9.63,1.73q-63.36,0-126.72,0C656.11,157.63,652.7,158,649.8,155.83Z" transform="translate(-521.45 -136.01)"/><path class="cls-13" d="M791.73,167.54c-20,.14-39.93.34-59.9.4q-33.95.09-67.91,0c-4,0-7.95-.41-11.93-.63-.15-2.83,0-5.47,3.81-5.57,2-.06,4-.08,6-.08H784.19a42.3,42.3,0,0,1,6,.13C794.94,162.43,792.68,165.2,791.73,167.54Z" transform="translate(-521.45 -136.01)"/><path class="cls-14" d="M649.8,155.83l146,.08c-.94,4.76-4.73,3.78-7.9,3.79-13.92.05-27.84,0-41.77,0-29.17,0-58.34,0-87.52-.06C655.27,159.65,650.85,161.34,649.8,155.83Z" transform="translate(-521.45 -136.01)"/><path class="cls-15" d="M849.94,311.31c-3.64.46-6.94-.86-10.3-1.92-9.84-35.08-18.52-70.44-26.92-105.88a44,44,0,0,1-.91-9.87l-.07.06c5.92,10.78,8.5,22.77,12.27,34.32,8.51,26.09,16.72,52.28,25,78.44A41.07,41.07,0,0,1,849.94,311.31Z" transform="translate(-521.45 -136.01)"/><path class="cls-16" d="M608,307.32c-4.07.75-8,2.39-12.2,2.2,3.42-3.44,4.5-8,5.89-12.43q15.51-49.26,31-98.56a12.9,12.9,0,0,1,2.76-4.74Q623.2,251,608,307.32Z" transform="translate(-521.45 -136.01)"/><path class="cls-15" d="M811.81,193.64a3.39,3.39,0,0,1-1.84-3.21,3.59,3.59,0,0,1,1.25-2.78c.18,2,.35,4,.52,6Z" transform="translate(-521.45 -136.01)"/><path class="cls-16" d="M620.09,306c-2.57,1.85-5.43,1.87-8.39,1.37C614.19,305,617.12,305.3,620.09,306Z" transform="translate(-521.45 -136.01)"/><path class="cls-17" d="M639.74,460q0-15.94,0-31.88a38.19,38.19,0,0,1,.36-5.95,2.27,2.27,0,0,1,2.87-2c.84.19,2,1,2.16,1.66a28.49,28.49,0,0,1,.51,5.91c0,21.92.07,43.84-.06,65.75,0,2.67,1.5,7.12-2.72,7.29s-3-4.29-3.07-6.94C639.66,482.61,639.75,471.32,639.74,460Z" transform="translate(-521.45 -136.01)"/><path class="cls-18" d="M805.75,460c0-10.62,0-21.24,0-31.86a39.29,39.29,0,0,1,.34-5.95,2.26,2.26,0,0,1,2.86-2c.83.21,2,1,2.14,1.7a28.49,28.49,0,0,1,.5,5.91c0,21.91.07,43.81,0,65.71,0,2.69,1.44,7.15-2.74,7.3s-3-4.33-3-7C805.66,482.6,805.75,471.32,805.75,460Z" transform="translate(-521.45 -136.01)"/><path class="cls-19" d="M827.9,544.67H615.43c6.23-8.59,11.17-15,22.47-14.86q83.42.81,166.84,0C816.13,529.68,823,533.44,827.9,544.67Z" transform="translate(-521.45 -136.01)"/></svg>