<svg id="Слой_1" data-name="Слой 1" xmlns="http://www.w3.org/2000/svg" viewBox="0 0 379.52 645.99"><defs><style>.cls-1{fill:#e2d251;}.cls-2{fill:#d2b83b;}.cls-3{fill:#c0a429;}.cls-4{fill:#c8ae31;}.cls-5{fill:#bfa427;}.cls-6{fill:#d1b83b;}.cls-7{fill:#c1a528;}.cls-8{fill:#d3ba3e;}.cls-9{fill:#f7f0de;}.cls-10{fill:#f8f0df;}.cls-11{fill:#ce2720;}.cls-12{fill:#ce2721;}.cls-13{fill:#29282d;}.cls-14{fill:#e2d352;}.cls-15{fill:#2a292d;}</style></defs><title>car7</title><path class="cls-1" d="M818,202.74a3.76,3.76,0,0,1,1.48-.33c3.39,9.38,9.78,16.09,18.29,21.11,2.84,1.68,5.24,4.18,5.83,7.8,11.84,41.93,15.64,85.06,19.38,128.2.66,7.62,2.49,15.16,1.87,22.88-.32,3.91.19,8.17-4,10.62-3.52.88-6.48-.87-9.57-2-44.11-16.77-89.78-25.44-136.93-23.72a340.35,340.35,0,0,0-113,23.46c-3.68,1.45-7.17,3.71-11.43,2.76-4.43-1.93-3.75-5.76-3.4-9.37,4.45-45.88,10-91.61,20.19-136.63,1.78-7.79,4.71-15.19,7.47-22.64a35,35,0,0,1,16.4-15.62c15.23-3.5,29.62-9.92,45.23-12.28,43.44-6.56,86.33-5.09,128.57,7.6C809.36,206,814,207.54,818,202.74Z" transform="translate(-534.07 -188.39)"/><path class="cls-2" d="M573.73,450.59c-2.7-7.34-.3-15.18-2.2-22.74-3.78-.92-6.09,2-8.86,3.47-7,3.8-14.22,7.29-22.16,8.57-5.13.83-6.61-.78-6.43-6,.25-7.28,3.21-12.49,10.51-15.21,8.78-3.27,18.11-4,27-6.62,2.8-2.37,6.5-2.55,9.68-4,2.47-1.08,5-1.88,7.68-1,3.62,1.8,5,5.26,6,8.74,8.46,28.9,18.41,57.36,25.71,86.63,1,45.25.13,90.5.52,135.73-.55,16.26-.74,32.55-.41,48.83,1,47,34.07,86.71,80.21,93.11,25.93,3.6,52.63,4.59,77-9,32.39-18.13,50.82-45.07,51.23-83,.19-17.28.26-34.57-.52-51.86.66-44.58-.56-89.16.59-133.71,8.56-28.42,17.66-56.69,25.89-85.23a21.11,21.11,0,0,1,3.9-7.95c1-.91,2.14-2.21,3.35-1.93,11.64,2.75,10.7-4.82,11-12.44.24-5.69-3.1-12.72,4.26-16.73,0,9.32.16,18.65-.24,28-.21,4.66,1.55,6.78,5.93,7.36a79.86,79.86,0,0,1,18.39,4.5c2.8,1.08,5.6,2.17,7.74,4.4,2.94,3.06,5.33,12.36,3.36,14.93-3.48,4.55-7.94,1.77-11.87.68-8.74-2.41-16.47-7.08-24.23-11.62-6.56.52-12.81,1.41-12.27,10.37-3.7,15.56-8.67,30.73-13.31,46-5.35,17.6-8.49,35.48-8.34,54,.23,28.6.95,57.23-.27,85.78-.74,17.46,3.86,29.89,21,36,4.53,3.29,5.59,8.14,5.35,13.22-1.35,28.41,4.78,56.76.3,85.22-1.09,6.87-1.58,13.78-4.25,20.26-7.87,15.35-18.93,27.73-34,36.5-4,2.32-7.93,5-8.8,10.12-8.06,4.28-16.84,6-25.77,6.89a731.5,731.5,0,0,1-147.06-.35c-7.54-.8-15.08-2.29-21.76-6.38-2.42-4-5.1-7.77-9.44-10-14.45-7.37-24.51-19-32.1-33.1a50.36,50.36,0,0,1-6.6-23.74c-.3-28.75-2.26-57.56,1.39-86.27.6-4.69,1.28-9.22,5.45-12.27,2.65-2.07,5.78-3.26,8.78-4.7,7.63-3.66,11.92-9.65,11.81-18.14-.56-42.22,3.06-84.6-2.42-126.63-3.18-24.44-13.21-47.37-19.67-71.11-.35-1.28-.9-2.51-1.24-3.77-.92-2.32-1-6.16-4.31-5.59-3.12.54-2.27,4.25-2.6,6.78C576,440.65,578.19,446.27,573.73,450.59Z" transform="translate(-534.07 -188.39)"/><path class="cls-3" d="M588,660.59c-1.33,1.77-4.21,2.48-4,5.33.75,8.65-2.42,16.89-2.22,25.58.48,20.51-.08,41,.25,61.57.16,10.25,2.43,20.18,7.76,29.18-1.8,2.47-.82,6.49-4.42,8-11-14-14.39-30.38-14.91-47.56-1-33.93.44-67.84,2.25-101.69,3.06-57.15,4.58-114.26,1.2-171.44-.37-6.3-.18-12.62-.25-18.93.1-6.31.12-12.62.33-18.92.1-2.79-1-6.29,3.26-7.28,4.46-1,6.91,1.24,8.21,5.18a13.61,13.61,0,0,1,.34,2.95C589.34,508.52,585.36,584.59,588,660.59Z" transform="translate(-534.07 -188.39)"/><path class="cls-4" d="M877.69,378.27c-3,3.45-1.39,7.58-1.62,11.41-.27,4.27-.05,8.57-.1,12.86-.13,10.76-.86,11.22-11,6.68-1.89-.84-3.11.4-4.58,1-3.16-5.94-1.24-12-.34-18,3.87-7.21,2.48-15,1.28-22.27-1.73-10.49-1.74-21.07-3-31.56-1.87-15.07-3.6-30.15-5.47-45.22-2.57-20.71-6.12-41.15-12.23-61.13-.14-.46.48-1.17.75-1.76,3.67-.5,6.42,1.39,8.73,3.8a138.61,138.61,0,0,0,21.7,18.48,51.1,51.1,0,0,1,6,22.95C878.94,309.75,879.14,344,877.69,378.27Z" transform="translate(-534.07 -188.39)"/><path class="cls-5" d="M861.9,780.54c4.65-18.72,7.16-37.85,5.79-57-1.34-18.57-1.68-37.08-1.62-55.64,0-3.57-1.91-5.41-4.11-7.41,1.84-28.22.5-56.47.86-84.7.59-45.83-1.09-91.68.9-137.5a5.39,5.39,0,0,0-1.41-3.63,17.56,17.56,0,0,1,.44-3.8c2.45-7.26,3.62-7.81,11.35-5.56a23.1,23.1,0,0,1,2.67,1.15c-.82,15.59-1.87,31.17-2.41,46.77-1.38,39.53-2.53,79-.48,118.61,2.17,41.81,4.65,83.63,4.66,125.52,0,15.25,1.27,30.62-2.43,45.67-2.39,9.7-5.53,19.11-12.15,26.92C861.24,787.27,861,784,861.9,780.54Z" transform="translate(-534.07 -188.39)"/><path class="cls-6" d="M588.22,408.1c-2.3-.07-4.17,1.13-6.13,2.07-4-4-3.19-9.26-3.18-14.13.14-43.52-.59-87,.39-130.56.09-4.14-.36-7.93-2.94-11.28a3.3,3.3,0,0,1,0-1.4c10.59-6.91,18.6-16.88,28.81-24.25,3.19-2.3,5.88-5.64,10.5-4.64a2.1,2.1,0,0,1,1,2.52c-11,28.36-14.65,58.3-18.78,88.13-2.54,18.32-5.27,36.62-7.68,55-.86,6.55.49,13.29-1.75,19.77-.47,1.33.94,2.34,2,3.14.41,1.75-.42,3.22-1,4.74-.9,2-.27,4,.12,6C589.74,405,589.71,406.75,588.22,408.1Z" transform="translate(-534.07 -188.39)"/><path class="cls-7" d="M576.36,254.2c8.07,1.08,8.28,1.13,6.58,7.92A36.28,36.28,0,0,0,582,271q0,69.62.08,139.22c-3,3.31-6.94,1.58-10.49,1.87l.12-11.34c-2.08-14.1.75-28.37-1.47-42.47-1.13-27.11-.93-54.22.23-81.31C570.81,269.1,571.83,261.1,576.36,254.2Z" transform="translate(-534.07 -188.39)"/><path class="cls-8" d="M818,202.74c-.33,2.86,1,6-1.75,8.93a205.6,205.6,0,0,0-34.82-10.06,296.91,296.91,0,0,0-51-5.58c-22.56-.31-44.89,1.18-66.86,6.28A151.33,151.33,0,0,0,634.47,212c-2.69,1.24-4.39,1.18-4.83-2.16-2.9-2.7-3.2-5.27.37-7.65,46.45-14.37,93.75-17,141.73-10.29C787.49,194.09,803.33,195.89,818,202.74Z" transform="translate(-534.07 -188.39)"/><path class="cls-9" d="M871.79,252.55c-5.41.85-8.52-2.88-11.87-6-6-5.65-11.59-11.72-18.56-16.24a31.4,31.4,0,0,0-11.14-9.09c-8.1-4-11.27-10.17-10.75-18.78,12.75,4.1,24.43,10.13,34.07,19.57C862.3,230.54,870.7,239.39,871.79,252.55Z" transform="translate(-534.07 -188.39)"/><path class="cls-10" d="M630,202.18c-2.82,2.42-.59,5.08-.37,7.65-2.34,7-9.46,9.26-14,14.09-10.23,6.34-18.82,14.63-27.3,23.05-3.37,3.35-6.75,6.46-12,5.83,4.43-18.57,16.43-31.33,32.25-40.73C615.31,208.08,622.84,205.44,630,202.18Z" transform="translate(-534.07 -188.39)"/><path class="cls-11" d="M861.9,780.54c2.29,2.79,1.73,6.2,2.06,9.42-9.64,16.59-24.25,27.07-41.76,34-3.74-5.24-.45-7.76,3.81-10a89.35,89.35,0,0,0,26.34-20.94C855.82,789.06,857,783.38,861.9,780.54Z" transform="translate(-534.07 -188.39)"/><path class="cls-12" d="M585.44,790.21c1.23-2.79-1.74-7.91,4.43-8C596.75,796,607.49,805.88,621,813c4.43,2.31,9.26,4.58,6.6,11.17C609.76,817.54,595.06,807,585.44,790.21Z" transform="translate(-534.07 -188.39)"/><path class="cls-2" d="M570.25,358.23a5.77,5.77,0,0,1,1.72,4.51q-.12,19-.25,38C569.48,386.6,570.06,372.41,570.25,358.23Z" transform="translate(-534.07 -188.39)"/><path class="cls-13" d="M587.75,396.22l2.73-3.79c26.45-12.28,54.43-19.51,83.07-24,59.12-9.3,116.71-2.53,172.83,17.83,4.67,1.69,9.13,4,13.69,6,4.92,5.9,1.23,12,.34,18Q848.24,450,836.08,489.89c-1.06,3.47-1.79,7.07-4.18,10a3.7,3.7,0,0,1-2.85,1.28,86.93,86.93,0,0,0-11.64-.14c-45.37-5.45-90.93-3.85-136.42-3.45-15.53.13-31.12,2-46.64,3.59-3.94-.16-7.89-.47-11.8.4a5,5,0,0,1-4.44-1.68q-12.84-41.61-25.7-83.21c-.95-3.05-.89-6.64-4.19-8.56-.17-2-.33-4-.5-6A6.32,6.32,0,0,1,587.75,396.22Z" transform="translate(-534.07 -188.39)"/><path class="cls-14" d="M618.11,499.87l3.61.14c3.2-1.84,7,.13,10.2-1.46a880.41,880.41,0,0,1,188.14-.14c3.3,1.8,7.12-.14,10.44,1.48a1.25,1.25,0,0,1,1.4,0q.06,64.95.09,129.91c0,2.89.84,6.08-1.9,8.4-39.12.15-78,6.33-117.19,5.1-24.9-.78-49.71-2.84-74.53-4.61-6.46-.47-12.49.72-18.7,1.47-2.44-2.48-1.64-5.62-1.64-8.53Q618,565.75,618.11,499.87Z" transform="translate(-534.07 -188.39)"/><path class="cls-13" d="M619.67,640.14c4-4.91,9.19-5.47,15.25-4.95,29.8,2.56,59.62,4.91,89.57,4.87,30.29,0,60.43-2.45,90.55-5.16,5.52-.49,10.57-.32,15.05,3.28a22.16,22.16,0,0,1,2.68,11.5c-.13,12.67.2,25.34-.16,38-1.4,48.4-33.33,87-81.16,95.15-29.91,5.12-60,4.16-86.94-13.14-29.72-19.09-44.51-46.89-46.22-81.8-.6-12.3-.11-24.66-.2-37A27.68,27.68,0,0,1,619.67,640.14Z" transform="translate(-534.07 -188.39)"/><path class="cls-15" d="M862.31,434.68c.84-.36,2.22-1.25,2.5-.36a19.59,19.59,0,0,1,.57,5.79q.2,105.84.26,211.68c0,3.15,2.12,7.77-3.68,8.72-3.6-1.68-7.28-3.22-10.81-5-7-3.64-11-9.21-11.07-17.46-.11-37.88-1.71-75.77.23-113.64a155,155,0,0,1,6.79-38.15C852.42,469.11,857.26,451.86,862.31,434.68Z" transform="translate(-534.07 -188.39)"/><path class="cls-13" d="M588,660.59c-1.66-.32-3.41-.69-3.56-2.76-.2-2.65-.2-5.32-.21-8q0-103.46,0-206.89c0-3.48-1.43-7.36,1.61-10.44,5,16.52,9.86,33.13,15.23,49.55,6,18.22,8.32,36.92,8.85,56,.91,33-.28,66-.11,98.92,0,9-3.77,15.29-11.82,19.1C594.71,657.62,591.36,659.08,588,660.59Z" transform="translate(-534.07 -188.39)"/><path class="cls-7" d="M587.75,396.22l0,5.9C585.5,400.14,585.43,398.17,587.75,396.22Z" transform="translate(-534.07 -188.39)"/><path class="cls-2" d="M631.92,498.55c-3.08,2.74-6.72,1.54-10.2,1.46C624.9,498,628.4,498.22,631.92,498.55Z" transform="translate(-534.07 -188.39)"/><path class="cls-2" d="M830.5,499.89c-3.57.2-7.3,1.43-10.44-1.48C823.64,498.2,827.23,497.9,830.5,499.89Z" transform="translate(-534.07 -188.39)"/></svg>