<svg id="Слой_1" data-name="Слой 1" xmlns="http://www.w3.org/2000/svg" viewBox="0 0 392.3 646.04"><defs><style>.cls-1{fill:#f8f6de;}.cls-2{fill:#51b6e0;}.cls-3{fill:#49aad8;}.cls-4{fill:#3f97c5;}.cls-5{fill:#cd2425;}.cls-6{fill:#cb2726;}.cls-7{fill:#1f1e23;}.cls-8{fill:#2a292e;}.cls-9{fill:#51b5e0;}.cls-10{fill:#895e4c;}.cls-11{fill:#895e4b;}.cls-12{fill:#724637;}.cls-13{fill:#71483a;}.cls-14{fill:#714637;}</style></defs><title>car9_1</title><path class="cls-1" d="M748.8,263.52c-3.07.64-1.89,4.64-5.27,6-12.28-18.54-28.94-32.59-48.69-43.12a16.55,16.55,0,0,1-9.14-14.33c25,3.54,43.16,17.21,56.38,38.08C744.74,254.34,747.73,258.48,748.8,263.52Z" transform="translate(-401.63 -196.75)"/><path class="cls-1" d="M449.53,263.18c3.07.65,1.89,4.65,5.27,6,12.28-18.54,28.94-32.58,48.69-43.11a16.53,16.53,0,0,0,9.14-14.33c-25,3.54-43.16,17.21-56.38,38.08C453.59,254,450.6,258.14,449.53,263.18Z" transform="translate(-401.63 -196.75)"/><path class="cls-2" d="M699.86,831.67c-14.6,6-30,7.87-45.58,9.05a676.55,676.55,0,0,1-83.5,1.35c-18.78-.9-37.84,0-56.28-5.17-3.81-1.07-7.78-1.64-11.08-4.07-2.09-6.78-6.7-10.81-13.25-13.44a68.84,68.84,0,0,1-18.61-11c-4.4-3.69-8.15-7.77-7.68-14.14,4.64-34.55,6.41-69.28,7.17-104.08.14-6.78-.8-14.21,6.58-18.54,4.18-.5,6.85,2.06,9.31,4.81,24.6,27.57,57,38.54,92.33,41.12,22.78,1.67,45.79,1.59,68.41-4,26.55-6.57,49.57-18.8,67.93-39.35,2.78-3.1,5.13-7.25,10.39-6.73,5.13,2.11,4.73,6.8,4.93,11,1.8,38.49,4.05,76.95,7.44,115.31-3.85,14.53-16.5,19.54-28.15,25.23C704.43,821.8,700.05,824.75,699.86,831.67Z" transform="translate(-401.63 -196.75)"/><path class="cls-3" d="M735.89,796.37c-1.92-18.31-3.28-36.66-4.42-55-.68-10.84-.52-21.76-1.67-32.52A277.56,277.56,0,0,1,728,673.29c0-2.76-1.25-4.33-4-4.67q1.69-36.79,3.74-73.59c1.32-23.59,1.44-47.21,2.82-70.8,1.58-26.87,2.45-53.81,4.5-80.67.19-2.58.1-5.18.87-5.92-2,7.5-1.84,16.82-2.82,25.92-2.87,26.42-6.33,30-33.46,27.86a1190.75,1190.75,0,0,0-124.71-3.55c-27.91.76-55.86,2.05-83.66,5.05-16.26,1.76-21.85-2.4-24.26-18.63-1.44-9.73-3.43-19.37-3.7-26.35,4.82,33.89,6,70.92,8,107.91,1.81,33.21,4.43,66.38,5.91,99.61.27,5.91,5.89,10.84,2.73,17.17-1.72.25-3.19.84-3.78,2.69-1.11,3.46-2.41,6.84-2.14,10.63,1.53,21.21-1.62,42.29-2.4,63.43-.59,16-1.27,32.3-5.86,48-2.3,1-4.43-.89-6.7-.39-9.82-13.94-12.61-29.86-12.66-46.4q-.45-141.87-.71-283.75c-.05-21.65-.1-43.3-.27-64.94-.07-8-1.67-8.89-8.58-4.52-5.06,3.19-9.69,7-14.66,10.38a88,88,0,0,1-10.35,6c-2.72,1.33-5.92,2.06-8.43-.28s-1.69-5.65-1.12-8.52c.91-4.52,4.16-7.4,7.84-9.9,7.7-5.24,16.67-6.52,25.48-8.05,9.74-1.7,10.21-1.47,9.74-11.59-1.33-28.95-.81-57.92-1-86.88a81.36,81.36,0,0,1,2.91-22.67c.73-2.58,1.22-5.33,5.22-4.07,3,.95,5-1.35,6.81-3.26,12.75-13.76,27.7-24.86,42.73-35.9,6.5,3.75,4,9.12,2.1,13.92-9.95,24.7-15.56,50.59-21.38,76.44-.72,3.2-1.82,6.41-.81,9.77.2,9.11-2.43,17.67-5.53,26-2.34,6.35-3.52,12.66-2,19.34-13.75,5.72-12.77,16-9.67,28,5.91,22.87,10,46.18,16,69.05,2.87,11,3.66,11.62,15.18,10.42,37.06-3.86,74.24-6.63,111.48-5.59,32.53.9,65.14,1.51,97.53,5.25,8.12.93,12.45-1.28,13.93-9.76q7-39.84,14.34-79.59c1.47-7.94-2.51-12.54-7.29-17.29,1.42-8-2.49-14.75-4.77-21.95-2.88-9.14-6.61-18.1-7-27.88-2.89-24-10.72-46.59-18.58-69.19-2.41-6.92-5.82-13.48-7.81-20.53-1.68-6-.14-9.41,6.93-6.57,15.22,10.22,29.83,21.19,42.52,34.51.69.73,1.4,1.79,2.24,1.94,13.28,2.36,11.89,13.33,12.49,22.36.82,12.27.41,24.63.45,37,.06,19.64.2,39.29,0,58.93-.06,5.23,1.33,7.77,6.9,8.42,8.23,1,16.45,2.34,23.91,6.48,4.52,2.51,8.31,5.58,10,10.6,1,2.9,1.54,6-.69,8.52s-5.6,2-8.39,1c-5.43-1.83-9.84-5.49-14.47-8.74-4.08-2.86-8.17-5.74-12.48-8.23-2.6-1.5-4.47-.41-4.6,2.81-.06,1.66,0,3.33,0,5,0,26-.38,52,.24,77.92,2.14,89.88.64,179.77,1.54,269.65.12,11.82-1.52,23.18-5.93,34.15-1.5,3.72-3,7.42-5.68,10.45C740.12,794.41,738.57,798.55,735.89,796.37Z" transform="translate(-401.63 -196.75)"/><path class="cls-4" d="M694.53,222.46c-4.21.07-7.2.41-4.63,6.2,12.08,27.22,20.23,55.71,26.66,84.72.43,1.95,1.58,3.73-.6,5.28-5.12-.37-4.69-5-5.86-8.08-9.49-25.23-18-50.82-30.44-74.89-5.81-11.24-13-17.67-26.56-19.09-38.25-4-76.28-4.67-114.47.43-11.15,1.49-18.16,6.68-23.09,16.4C503,258.22,494.65,284.55,486.68,311c-1.31,4.34-1.58,9.41-6.73,11.56-2-1.38-1.82-3.22-1.3-5.29,5.29-21.06,10.31-42.19,15.9-63.17,1.86-7,4.88-13.68,7.88-20.27,1.86-4.08,1.74-7.6-.5-11.26.6-10.75.63-10.67,11-14.19,15.18-5.15,31-7.34,46.74-9.26a336.72,336.72,0,0,1,111.77,5.41c4.85,1,9.56,2.72,14.39,3.89,5.37,1.31,9.17,3.64,8.17,10.1C693.78,219.79,694.33,221.15,694.53,222.46Z" transform="translate(-401.63 -196.75)"/><path class="cls-5" d="M459,797c2.53-5.1,4.52-.75,6.7.39,7.07,11.27,18.19,17,30,21.76,8.84,3.56,8.88,3.46,7.75,13.73C483.92,826.68,469.23,814.57,459,797Z" transform="translate(-401.63 -196.75)"/><path class="cls-6" d="M735.89,796.37c2.2-.52,3.45-6.33,6.66-1.18-9.61,17.57-24.65,28.78-42.69,36.48-3.56-8.33-3.1-9.88,4.14-12.7C716.52,814.09,728.32,808.22,735.89,796.37Z" transform="translate(-401.63 -196.75)"/><path class="cls-7" d="M479.88,672.63c-8.54-13.86-6-29.63-7.13-44.6-2.94-40.54-4.84-81.16-7.21-121.74-.88-15-2-29.92-2.81-44.89a146.6,146.6,0,0,1,.56-20.59q3.48,18.51,7,37c2.15,11.37,4.68,13.44,16.2,12.37A1217,1217,0,0,1,633.23,485c26.3.73,52.57,2.63,78.85,3.91,12.11.59,13.8-.87,15.88-12.55,2-11.15,4.11-22.28,5.95-33.45a44.8,44.8,0,0,1,3.4-10.79c-3.06,75.07-6.14,149.29-9,223.53-.2,5-3,8.69-4.4,13-26.47,34.34-63,48.58-104.74,51.85-25.67,2-51.21.7-76.11-6.64C520,707,499.57,695.77,484,676.79A56.3,56.3,0,0,0,479.88,672.63Z" transform="translate(-401.63 -196.75)"/><path class="cls-8" d="M725.71,366.74c1.16.62,2.32,1.24,3.48,1.84,7.52,3.9,8.68,5.91,7.23,14.16q-6.57,37.35-13.34,74.67c-.94,5.24-2.41,10.42-2.86,15.7-.43,5.1-3,5.78-7.31,5.46-18.26-1.38-36.53-2.81-54.81-3.77-47.62-2.52-95.22-2.54-142.76,1.67-9.61.85-19.24,1.69-28.79,3-4.36.63-5.93-.79-6.82-4.81-6.82-30.54-13.87-61-20.66-91.56-1.64-7.36.78-11,8-13.77,2.46-1,5.36-.56,7.48-2.5,3.35-3.95,8.23-4.08,12.73-4.87,44.71-7.82,89.8-12,135.14-10.15,30.55,1.22,61.14,3.64,91.16,10.22,2.71.63,5.3,1.76,8.1,2.14A6.86,6.86,0,0,1,725.71,366.74Z" transform="translate(-401.63 -196.75)"/><path class="cls-9" d="M715.74,364.71c-11.52-1.59-23-3.25-34.56-4.77a614.28,614.28,0,0,0-158.33-.08c-16.15,2.05-32.23,4.66-48.34,7-6.56-1.5-4.79-6.14-3.49-10.13,3.14-9.67,6.48-19.27,8.43-29.27.32-1.61.34-3.26.5-4.9a82.64,82.64,0,0,0,4.11-12.21c8.06-27.38,16.81-54.48,29.91-80,5.19-10.11,12.66-14.54,24.15-16.11,25.77-3.5,51.57-4.26,77.43-3.46,15.84.48,31.67,2.25,47.42,4.12,7.46.89,12.08,6.61,15.54,12.92,10.09,18.39,18.17,37.67,25.35,57.34,4.07,11.15,8.07,22.32,12.1,33.48a196.26,196.26,0,0,0,10.13,34.22c1.23,3.08,2.48,6.17,3.4,9.35s-1.2,4.11-3.78,4.51l-3.79-.5C720,365,717.55,366.21,715.74,364.71Z" transform="translate(-401.63 -196.75)"/><path class="cls-10" d="M633.71,592.81c-4.84-3.62-10.22-6.86-9.76-14.14,5.81-4.36,7.25-10.31,7.09-17.31-.3-12.82-.15-25.65,0-38.48,0-4.26-.19-8.64,3-12.12,20.63-.57,41.25-.81,61.88-.09,1,16,2.18,32,2.52,48.09.16,7.61-.25,15.34,7.72,19.87-2,5.83-6.44,9.73-10.58,13.9-1.9,1.59-3.75.84-5.46-.27-17.17-11.17-34.38-10.26-51.67-.29C637,592.8,635.44,593.44,633.71,592.81Z" transform="translate(-401.63 -196.75)"/><path class="cls-11" d="M507.54,594.94A18.71,18.71,0,0,1,496,582.53c9.94-13.79,6.46-29.66,6.92-44.91.19-6-.13-12,.27-18,.37-5.48,2.58-8.3,8.76-8.14,7.94.21,15.95,1,23.87-.54L566,510.9c3.32,3.48,3,7.91,3,12.17.12,11.9,0,23.81.06,35.71,0,7.22-1,14.79,6.71,19.47,1.44.87,1.35,2.88.28,4.45a18.68,18.68,0,0,1-11.62,12.19c-3.16,1.47-5.34,0-6.37-2.77-2.38-6.37-7.54-6.68-13.07-6.62s-11.32.14-17,0c-6.32-.19-12,.37-14.6,7.5C512.48,595.45,510.1,596.07,507.54,594.94Z" transform="translate(-401.63 -196.75)"/><path class="cls-12" d="M535.83,511c-6.61,3.21-13.65,1.19-20.48,1.52-9.23.45-9.31.23-9.35,9.54-.06,14.6-.29,29.21.1,43.81.19,6.87-.36,12.5-8.31,14.39-.74.17-1.19,1.51-1.78,2.31-2.78-3-2.51-6.8-2.58-10.38q-.48-25.46-.61-50.92c0-9.53.76-10.31,10.1-10.49C513.89,510.54,524.87,510,535.83,511Z" transform="translate(-401.63 -196.75)"/><path class="cls-13" d="M706.14,578.63c-9.63-.7-9.82-.82-10.17-9.26-.68-16-1.28-32.09-1.94-48.13-.15-3.67,0-7.26,1.87-10.57,10.59-1.66,11.81-.73,11.87,9.51.1,15.63.2,31.27.12,46.91C707.87,571,708.81,575.11,706.14,578.63Z" transform="translate(-401.63 -196.75)"/><path class="cls-12" d="M576,582.7c-.46-1.21-.43-3.17-1.84-3.28-8.6-.67-8.3-6.63-8.26-12.89.13-18.54,0-37.09,0-55.63,2.3-.16,4.6-.39,6.9-.46,3.74-.12,5.5,2,5.49,5.5-.07,20.47,1.18,40.94-.18,61.4C578,579.31,577.72,581.3,576,582.7Z" transform="translate(-401.63 -196.75)"/><path class="cls-13" d="M633.71,592.81c1.09-.75,2.56-1.25,3.21-2.28,4.65-7.41,11.52-8.73,19.6-8,5.93.52,11.94.1,17.91.13,6.4,0,13.54-1.76,16.08,7.26.52,1.85,3,2.48,5,2.63-3.1,4.84-8.38,4.86-13,5.09-11.47.58-23,.69-34.48.45C642.89,598,637.58,597,633.71,592.81Z" transform="translate(-401.63 -196.75)"/><path class="cls-13" d="M634,510.76c0,19.18.07,38.36,0,57.55,0,9.44-.32,9.62-10.07,10.36-2.75-3.1-1.89-6.92-1.93-10.47-.14-15.61-.16-31.22-.14-46.82C621.89,510.12,622,510.12,634,510.76Z" transform="translate(-401.63 -196.75)"/><path class="cls-14" d="M507.54,594.94c3.84-.55,4.35-3.27,4.51-6.49.21-4,2.81-5.74,6.62-5.75q17.33,0,34.64,0c3.81,0,6.42,1.66,6.62,5.73.15,3.2.59,6,4.48,6.47-2.78,2.79-6.45,3.38-10,3.43-12.26.18-24.53.14-36.8.07C513.91,598.36,510.33,597.7,507.54,594.94Z" transform="translate(-401.63 -196.75)"/><path class="cls-3" d="M715.74,364.71c2.22-.14,4.51-.55,6.18,1.53A7.79,7.79,0,0,1,715.74,364.71Z" transform="translate(-401.63 -196.75)"/><path class="cls-3" d="M672.12,338c13.46,3,27,6,40.36,9.22,2.34.56,5.66,1.49,4.85,5.09-.69,3-3.67,2.46-5.82,2.29-8.84-.73-17.71-1.33-26.45-2.74a72.18,72.18,0,0,0-10.75-1.2c-2,0-4,.18-5.77-1-2.52-1.72-5.18-3.78-4.07-7.18S667.84,336.59,672.12,338Z" transform="translate(-401.63 -196.75)"/></svg>