<svg id="Слой_1" data-name="Слой 1" xmlns="http://www.w3.org/2000/svg" viewBox="0 0 392.24 646.55"><defs><style>.cls-1{fill:#cccdd2;}.cls-2{fill:#b9bbbf;}.cls-3{fill:#ceced3;}.cls-4{fill:#cf2624;}.cls-5{fill:#cf2625;}.cls-6{fill:#ebecf0;}.cls-7{fill:#29282d;}.cls-8{fill:#1e1e22;}.cls-9{fill:#cecfd4;}.cls-10{fill:#eca553;}.cls-11{fill:#ca782c;}.cls-12{fill:#cc7c31;}</style></defs><title>car2</title><path class="cls-1" d="M582.25,788.93a92.71,92.71,0,0,1-13.74-51.07c3-108.49,1.36-217,2-325.52,0-7.66,2.37-15.1,1.67-22.83-.6-6.55-2.21-7.72-8-4.23-6,3.61-11.56,7.8-17.35,11.69-2.21,1.48-4.44,2.95-6.77,4.21-3.3,1.78-7,3.48-10,.08-2.77-3.06-2-6.85-.47-10.32,2.64-6,8.17-8.63,13.63-11,6.73-2.86,14-3.85,21.26-4.74,7.49-.92,7.66-.78,7.69-8.16.1-25,0-49.95.13-74.92,0-11.62-.78-23.27,2-34.75,1-4,1.43-7.64,7.35-6.79,3.53.5,5.49-3.38,7.79-5.67,11.35-11.26,24.07-20.8,37.15-29.9a35.7,35.7,0,0,1,3.48-2c6.3,1.22,6.68,1.67,3.85,8.75a412.24,412.24,0,0,0-18.08,57c-2.52,10.51-7.17,20.77-5.92,32-.44,10-4.16,19.27-7.37,28.56-2.19,6.34-2.38,11.88,2.15,17.12-.19.28-.32.66-.58.81-16.18,9.72-16.17,9.71-12.23,29.47,4.5,22.55,9.62,45,14.26,67.49,1.6,7.73,4.59,11.21,13.42,10.43,35.16-3.09,70.4-5.62,105.74-4.37,32.58,1.15,65.19,2.12,97.65,5.51,4,.42,8,.35,12,.74,4.69.46,7.68-1.19,8.7-6.05,6.07-28.69,11.2-57.56,16.71-86.37,1.06-5.56-2.66-9.37-5.23-13.59-3.61-15.69-10.37-30.55-12.73-46.6.58-7.8-1.53-15.2-3.63-22.54-6.51-22.71-12.51-45.58-21.25-67.59-2-5.1-4.12-10.91,5.18-11,15.35,11.63,31,22.88,44,37.34.22.25.45.59.74.66,14.16,3.42,12.6,15.43,12.8,25.37.55,27.63.12,55.29.08,82.93,0,2,0,4,0,6,.33,12.74-2.39,10.4,11.57,13.67,6.21,1.45,12.2,3,17.84,5.93a20.44,20.44,0,0,1,9.06,9c1.59,3.11,2.73,6.46.2,9.33-2.83,3.19-6.82,2.84-10.09.9-5.13-3-9.82-6.82-14.85-10.05-4.08-2.62-7.37-6.74-13.29-7.48-.27,8.57-2.14,16.57-2.14,24.86,0,83.27.47,166.56-.68,249.81-.42,30.25-.61,60.53-1.6,90.78-.41,12.66-3.79,24.89-11.79,35.29-2.58-.09-4.65-.92-5.37-3.71-4.07-30.21-6.08-60.59-7.87-91-.73-12.54-1.87-25.07-2.44-37.64-.49-19.11,3.58-38,2.67-57.15a53.9,53.9,0,0,1,.79-12.55c2.44-9.31,1-18.79,1.11-28.21,3.39-41.3,2.75-82.86,8.07-124-1.1,12.63-2.05,25.28-5.43,37.55-2.71,9.87-7.91,14.21-18.1,13.27-21.81-2-43.67-3.15-65.53-4.36-15.1-3-30.35-.61-45.5-1.28-3.69.41-7.37,0-11.06,0-19.09.58-38.23-1.64-57.26,1.26-15.25,1.2-30.56,1.67-45.84,2.6-13,.79-16.54-3.23-19.6-16.14-2.37-10.06-2.46-20.24-3.66-30.38C595.73,491,595,547,599.37,602.76c-1.31,17.41,2.67,34.58,2.48,51.94-4.23,26.45-5.11,53.25-8.51,79.79-2,15.74-3.27,31.58-6.72,47.11A13.93,13.93,0,0,1,582.25,788.93Z" transform="translate(-528.18 -186.97)"/><path class="cls-2" d="M608.23,311.07c-2.74-2.39-2.11-5.52-1.37-8.34,6.6-25.26,12.72-50.67,21.71-75.24,1.25-3.41,3-6.65,4.54-10s-.3-4.15-3.05-4.44a28.85,28.85,0,0,0,.34-5c-.55-5.4,2.48-7.47,7.1-9.12,10.69-3.82,21.8-6,32.9-7.56,21.35-3.08,42.86-5.35,64.5-4.16,25.84,1.41,51.52,4,76.45,11.62,10.75,3.29,10.81,3.08,11.32,14-3.16,2.15-5.56,3.51-3.35,8.84,10.37,25,17.3,51.17,23.92,77.38,1.13,4.49,3.39,9.13,1.18,14-5.43-2.35-5.83-7.82-7.32-12.39a660.08,660.08,0,0,0-27.67-71.64c-6.28-13.69-15.49-20.3-31.16-21.95a563.49,563.49,0,0,0-108.49-1.09c-11.89,1-20.33,5.41-26,16.66-12.51,24.79-21,51-29.69,77.23C612.76,304,612.55,308.61,608.23,311.07Z" transform="translate(-528.18 -186.97)"/><path class="cls-3" d="M820.55,823A110.2,110.2,0,0,1,782,831.18c-23.17.88-46.39,3.61-69.52,1.63-17.14-1.46-34.33-1.46-51.47-3a174.79,174.79,0,0,1-38.52-8c1-4.32.56-9.26,5.2-12,4.69-1.32,9.23.11,13.8.76,44.86,6.34,89.84,6.92,135,4.15,13.89-.85,27.54-4.26,41.54-3.45C824,814.08,822.37,818.53,820.55,823Z" transform="translate(-528.18 -186.97)"/><path class="cls-4" d="M625.76,811.53c-.44,3.63,2.64,8.4-3.3,10.28a92.5,92.5,0,0,1-40.21-32.88c-.08-2.42-1.62-5.33,2.19-6.43,2.7-.1,4.1,1.9,5.56,3.62,7.86,9.29,17.69,15.73,28.84,20.34C621.54,807.57,624.58,808.3,625.76,811.53Z" transform="translate(-528.18 -186.97)"/><path class="cls-5" d="M820.55,823c-1.83-3.18-.86-6.57-.77-9.89-.07-2.45,1.65-3.68,3.53-4.24,13.14-3.9,23.5-11.95,32.8-21.65a6.76,6.76,0,0,1,4.39-2.11c1.8-.23,3.23.28,4,2.06C854.36,804.67,839.51,816.37,820.55,823Z" transform="translate(-528.18 -186.97)"/><path class="cls-6" d="M860.5,785.14c-7.57,12-18.84,19.08-31.64,24.24-3,1.22-6.47,1.51-9.08,3.76-6.1-1-11.84,1.43-17.68,2.27-32.38,4.66-64.93,4.18-97.44,3.58-25.12-.46-50.24-2.19-74.93-7.53a17.06,17.06,0,0,0-4,.06c-4-1.59-8-3.1-11.91-4.81-12.08-5.28-22.08-13.14-29.41-24.21-.85-6.71,1.5-13.12,2.28-19.65,2.12-17.69,4.41-35.34,5.92-53.11,1.23-14.47,3.72-28.83,3.8-43.41a19.45,19.45,0,0,1,3.66-11.11c2.94.43,4.6,2.62,6.1,4.78,19.54,27.93,48.45,40,80.3,45.59,30,5.3,60.25,5,90.08-2.73,26.23-6.78,48.41-20,65.86-40.91,2.3-2.75,4-6.25,8.23-6.73.5.85,1.46,1.73,1.41,2.54-.77,12.68,1.91,25.13,2.43,37.72.64,15.53,1.94,31,3.39,46.53,1.2,12.84,2,25.7,4.09,38.46C862.22,781.91,861,783.58,860.5,785.14Z" transform="translate(-528.18 -186.97)"/><path class="cls-7" d="M856.21,359.8c6.67,3.64,8.68,8.47,7,16.44-6.11,29-11.35,58.1-17,87.17-1.41,7.3-1.47,7.2-9.09,6.49-52.09-4.87-104.29-7.69-156.61-6.19-21.95.63-43.92,1.8-65.75,4.44-8.19,1-8.28,1.08-10.16-7.65q-8.26-38.53-16.4-77.1c-.83-3.9-1.72-7.8-2.35-11.74-1.21-7.58,1-10.92,8.22-13.58,3.43-1.26,7.39-.41,10.5-2.78,12.48-7.61,26.87-7,40.53-8.65a608,608,0,0,1,93.66-4.51c36,1.22,71.74,4.73,107,12.41C849.7,355.4,853.7,356.14,856.21,359.8Z" transform="translate(-528.18 -186.97)"/><path class="cls-6" d="M856.21,359.8c-49.54-11.28-99.75-15.68-150.49-14.47a629.37,629.37,0,0,0-93.19,9.11c-2.61.46-5.27.58-7.91.86-8.21-1.05-8.41-1.1-6.49-8.28,3.22-12,6.72-24,10.1-35.95,7-26,16.23-51.22,26.46-76.1,3.31-8,7.89-15.4,12.4-22.76,2.67-4.35,6.61-6.39,12.19-7.31,29.09-4.8,58.37-4.36,87.57-3.38a325.42,325.42,0,0,1,44.41,4.84c6.14,1.06,10.08,4.16,13.4,9.16,9.47,14.28,15.4,30.2,21.45,46,6.52,17,12.24,34.39,18.31,51.6,1.67,12.16,7.38,23.16,10,35.05C855.33,352,856.89,355.73,856.21,359.8Z" transform="translate(-528.18 -186.97)"/><path class="cls-8" d="M773.25,476.92c19.63-.63,39.09,1.81,58.61,3.17,2,.14,4,.49,5.95.65,11,.87,13.42-.8,15.61-11.69,2.67-13.27,5.08-26.58,7.8-40.89,2.5,9.83-.76,89.17-5,129-2.43,9.47.55,19.25-1.63,28.74a30.69,30.69,0,0,1-.41,11.26c-.36.58-.84,1.23-.73,1.81,3.59,19.24-8.6,30.08-21.6,40.39-19.47,15.45-42,24.46-66.15,28.74-40.4,7.14-80.11,4.74-118.38-11.34-10.5-4.41-20.53-10-28.85-17.61-10.63-9.71-16.15-23.09-22-36-2.71-19.48-2.15-39.15-3.33-58.72-2-34.19-3.23-68.44-4.72-102.67a30.76,30.76,0,0,1,1.2-11.1c2.17,11.86,4.4,23.72,6.51,35.6s3.91,13.51,15.67,12.79c15.26-.94,30.47-2.76,45.79-2.14,14.91-1.63,29.87-.48,44.8-.66,7.56-.1,9.26,3.18,5.89,9.92-5.35,10.68-12,18.72-25.91,15.92-5.11-1-10.61-.14-15.92-.12-10.59-.05-21.18-.13-31.77,0-11.39.15-13,1.85-13.21,13.47-.32,17.54.55,35.08-.47,52.59-.41,3.46-2.73,5.81-4.7,8.48-6,8.13-3.46,20.12,5.52,24.27,4.71,2.18,8.05,6.61,14.14,8.58-.84-8.51-14.69-15.2-2-23.34a6.91,6.91,0,0,1,2.79.24,14.49,14.49,0,0,1,5.27,4.4c3.56,4.43,6.64,8.09,9.84-.58,1.45-3.92,6.1-3.13,9.67-3.42,7.5-.62,15.18,1.33,22.51-1.61,11.78-5.21,17-14.66,17.73-27.11.17-2.91,0-5.91,1.8-8.5,4.71-1.27,9.41.11,9-9.19-.34-7.79,3.33-18.09,13.55-22.28,5.67-2.33,9.47-7.16,12.23-12.68,1.21-2.43,2.66-5,5.76-4.82,4,.22,4.16,3.65,4.79,6.58.66,16.33.19,32.65.31,49,.17,22.67,7.48,30.11,29.89,30.22,8.32,0,16.65.05,25,0,5.43-.06,10.59-1.1,15.15-4.24,1.83-2,3.81-3.86,5.65-5.84,3.83-4.64,4.35-10.29,4.47-15.87.32-15.15,0-30.31.14-45.46,0-6.55-1.88-11-9.39-10.84a37.4,37.4,0,0,1-8.83-.89c-13.87-2.41-27.88-1.43-41.74-.85-11.33.47-20.34-5.15-30.22-8.43-5.52-1.83-6-7.38-5.16-12.68.93-5.63,5.27-5.07,9.25-4.93C753.37,476.57,763.34,475.34,773.25,476.92Z" transform="translate(-528.18 -186.97)"/><path class="cls-7" d="M596.45,603.17c5.38,7.37,12,14.08,15.06,22.78,2.17,6.1,6.32,9.79,11.16,13.42A138.64,138.64,0,0,0,691.1,666.5c19.54,2.18,39.23,4,59.35,1.24,22-3,42.68-8.91,62.34-18.81,15.37-7.74,27.42-19.5,38.25-32.64,1.89-2.3,1-5.09,1.32-7.66.49-3.83-1.38-8,1.83-11.44-.19,19.41-.82,38.78-3.52,58-19.62,29.42-48,45.36-81.85,52.19-34.81,7-69.51,6.08-103.64-4.17-27.33-8.21-50-23.11-65.08-48-2.67-6.94-1.79-14.29-2.43-21.46A267.09,267.09,0,0,1,596.45,603.17Z" transform="translate(-528.18 -186.97)"/><path class="cls-7" d="M746.49,505.4c-.66-3.67-3.83-5.24-4.71-1.61-1.47,6.08-5.76,9.26-9.37,13.32-.66.73-1.18,2.27-1.78,2.28-8.74.11-9.49,7.5-13,13-3.13,4.94-5.76,8.51-1.38,14,2,2.56-1.41,6.83-4.77,6.05-2.54-.59-4.84-2.16-7.24-3.3-4.46-5.5-2.44-12-2.78-18.15-.32-5.61-.16-11.24-.09-16.86.07-6.39-2.47-10.08-9.24-10-8.28-.61-16.72,1.39-24.82-1.67a2.87,2.87,0,0,1-1.51-3c9.64-.1,19.28-.17,28.92-.34,1.77,0,4.6.62,4-2.63-.84-4.49,1.88-6.67,4.83-9a13.55,13.55,0,0,0,3.27-3.61c2.32-3.94,1.16-6.38-3.41-6.58-6.3-.28-12.63-.06-19-.1-9-.05-18-.15-26.92-.24,7.35-2.24,14.95-1.46,22.44-1.58,12.12-.19,24.24-1,36.36-.06,3.16,2.51,2.66,8.21,7.79,9.1,3-2.58.23-6.41,2.22-9.09,15.64-.17,31.3-1,46.85,1.62-10,.09-20,.21-30,.25-3.55,0-6.57.18-6.93,5-.46,6,.69,9,5.25,10.36a33.73,33.73,0,0,0,5.9.66c1.65.18,4.3-.18,4.77.67,4.55,8.08,12.15,5,18.64,5.23,10.65.35,21.31,0,32,.14,3.22,0,6.73-1,9.49,1.73-2.94,3.43-7,3.24-10.94,3.26-13.48.08-27,.39-40.42-.16C756.08,503.34,751.39,505.53,746.49,505.4Z" transform="translate(-528.18 -186.97)"/><path class="cls-8" d="M726.39,475.3a14.63,14.63,0,0,1,1.57,3.64c.44,3.2,1.75,7.53-2.24,8.67-3.76,1.08-6.9-2.1-8.5-5.51-.93-2-.6-4.52-.84-6.81A26.33,26.33,0,0,1,726.39,475.3Z" transform="translate(-528.18 -186.97)"/><path class="cls-7" d="M854.6,585.93c-.08-7.48-.17-15-.23-22.46,0-2.27-.17-4.61,1.86-6.28C856.37,566.81,856.89,576.45,854.6,585.93Z" transform="translate(-528.18 -186.97)"/><path class="cls-9" d="M613.35,345.08c-3,0-4,.06-5,0-1.78-.11-3.31-.81-3.56-2.73a3.68,3.68,0,0,1,2.2-4.07c2.78-.92,5.76-1.22,8.64-1.86,12.18-2.71,24.37-5.42,36.54-8.21,3.2-.73,6.64-2.49,8,2.41s-.55,6.88-5.88,9c-6.63,2.66-13.66,1.37-20.48,2.9C626.58,344.16,618.76,343.41,613.35,345.08Z" transform="translate(-528.18 -186.97)"/><path class="cls-10" d="M758.55,501.39l53.83-.46,8,.7c3.45,3.48,2.91,8,3,12.24.16,11,0,22,.07,33,.06,7.92-.89,15.94,3.88,23.23,1.65,2.53.69,5.81-1.17,8.44l-4.4,4.31c-1.65.3-3.46.65-4.89-.23-17.35-10.74-35.81-6.94-54.14-4.13-7.63,1.16-11.21-1.14-9.85-7.79,4.23-20.67,4.84-41.54,4.46-62.51C757.3,505.84,757.24,503.49,758.55,501.39Z" transform="translate(-528.18 -186.97)"/><path class="cls-11" d="M758.55,501.39c1.63,3.05,1.59,6.35,1.8,9.7,1,17.33-2,34.5-1.84,51.79a9.79,9.79,0,0,1-2.87,7.16,4.26,4.26,0,0,0-.31,5.53c1.35,1.91,3.68,1.91,5.45,1,15-7.22,30.8-1.88,46.16-3.29,2.5-.23,4.4,1.43,5.92,3.26a23.44,23.44,0,0,0,8.91,6.24C818,587.67,812.7,589,806.86,589c-12.32-.06-24.65,0-37-.16-12.11-.18-23-10.61-23.18-23.51-.27-17.31,0-34.63,0-51.94,0-2.66-.15-5.32-.22-8C749.25,500.28,753.82,500.6,758.55,501.39Z" transform="translate(-528.18 -186.97)"/><path class="cls-12" d="M692.27,501.19c11.52-.7,11.79-.48,11.88,11.08.09,12.29.1,24.59.14,36.89-.16,3.6-.24,7.2-.48,10.79-.88,13.17-6.55,23-19.54,27.56-12.74,1.89-25.76-1-38.45,2.41-3.26.88-6.43-1.11-9.44-2.53a2,2,0,0,0-1.59-.44,4,4,0,0,1-1.4-3c.13-12.92.6-13.48,13.33-13.66,11.3-.16,22.6-.18,33.9,0,5.81.1,8.7-.17,7.65-8.07-2.26-17.12-.13-34.5-.58-51.76C687.6,506.74,688.51,503.19,692.27,501.19Z" transform="translate(-528.18 -186.97)"/><path class="cls-12" d="M665.85,499.43a11.18,11.18,0,0,1,.86,1.4c-6.29,5.56-13.93,2.84-21,3.18-11.57.57-12.43.94-12.36,12.66.15,21.52-.21,43-1.42,64.53-3.9,5.61-6.45.52-9.14-1.36-3.11-2.17-3.71-5.76-4.07-9.31-1.35-20.94-.3-41.89-.39-62.84,0-6.5,1.45-7.83,8.61-8C639.92,499.39,652.89,499.49,665.85,499.43Z" transform="translate(-528.18 -186.97)"/><path class="cls-11" d="M826.17,578.52c0-3.84,1.23-7.8-3.85-10.08-3.24-1.46-2-5.31-2-8.15-.05-19.55,0-39.11.08-58.66,1.64-.14,3.28-.3,4.92-.41,4.94-.33,7.34,1.89,7.3,6.94-.14,18.5.06,37-.45,55.48C832,569,831.17,574.78,826.17,578.52Z" transform="translate(-528.18 -186.97)"/><path class="cls-7" d="M618.74,570.53c3.13,4.92,5.78,10.26,11.42,13a3.7,3.7,0,0,1,4.16,1.77c.13.56.28,1.12.47,1.68-5.61,7.55-5.6,7.54.27,13.91a40.14,40.14,0,0,1,4.51,5.27c1.2,1.86.64,3.85-1,5.39s-3.6,2-5.43.77a68,68,0,0,1-5.25-4.54c-1.77-1.47-3.51-3.86-5.46-4.08-6.8-.76-8.92-4.61-10.81-10.81C608.73,583.2,610.5,576.12,618.74,570.53Z" transform="translate(-528.18 -186.97)"/><path class="cls-7" d="M636.38,587.39l47.89.12c-3.1,2.83-6.9,1.49-10.4,1.63-4.94.21-9.88,0-14.83.07-3.27,0-7.09-.61-5.37,5.08.79,2.6-1.31,4.44-3.41,5.38-2.41,1.07-4.62-.45-6.1-2.15C641.37,594.32,639,590.79,636.38,587.39Z" transform="translate(-528.18 -186.97)"/><path class="cls-10" d="M634.32,585.27c-1.59-.12-3.25,0-4.16-1.77-3.42-9.53.25-19,.26-28.48,0-14.54,0-29.09,0-43.63,0-10.06.08-10,10.52-10.11,8.58-.08,17.16-.29,25.74-.45l25.56.36c-1.77,3.34-1.86,6.95-1.85,10.64.07,15.55.2,31.1,0,46.65-.07,4.85.55,9.06,7,13.33-21.94,2.94-41.69.05-61.12,1.85C635.3,577.74,638.1,582,634.32,585.27Z" transform="translate(-528.18 -186.97)"/></svg>