<svg id="Слой_1" data-name="Слой 1" xmlns="http://www.w3.org/2000/svg" viewBox="0 0 380.8 695.57"><defs><style>.cls-1{fill:#3ab394;}.cls-2{fill:#239373;}.cls-3{fill:#249373;}.cls-4{fill:#289573;}.cls-5{fill:#e2efdc;}.cls-6{fill:#c82f25;}.cls-7{fill:#2a2a2e;}.cls-8{fill:#29282d;}.cls-9{fill:#2c3636;}.cls-10{fill:#29292d;}.cls-11{fill:#c92822;}</style></defs><title>car4</title><path class="cls-1" d="M688.21,163.13c3.39-1.92,7.15-1.37,10.74-1.4q22-.18,43.93.05c3.26,0,6.7-.54,9.73,1.36-2.52,2.53-5.64.89-8.48,1.47,13.27-1.12,26.35,1.22,39.53,1.92,12.86.67,21.63,6.54,27.47,18.11A350,350,0,0,1,829,228c11.43,33,21.18,66.55,29.91,100.37,1.17,4.57,3.8,9.65-1.22,13.85-25.23-6.08-50.73-10.7-76.59-12.72-29.13-2.28-58.2-4-87.57-1.78a865.18,865.18,0,0,0-92.93,11.7,14.69,14.69,0,0,1-5,0c-7.37-2.55-5.34-8.43-4.22-13.38q8.28-36.48,18.45-72.49a548.93,548.93,0,0,1,22.71-66c5.79-13.7,15-20.88,30.42-21.27,10.44-.27,20.86-2.42,32.22-1.48C692.36,164.06,689.86,165.38,688.21,163.13Z" transform="translate(-534.23 -161.65)"/><path class="cls-2" d="M688.21,163.13l11.73.77.08,1.62c-3.93,0-7.88.2-11.8,0-10-.6-19.72,2-29.64,2.57-11.4.63-18,8.46-22.53,18.44-8.67,19.07-15.18,38.94-21.06,58.94-7.17,24.4-13,49.19-19.39,73.82-1.07,4.15-2,8.34-2.89,12.53-.51,2.41-.21,4.64,2.11,6.13-4.92,7.25-4.18,14.66-1.52,22.61,8.42,25.23,16.2,50.67,23.61,76.21,1.78,6.16,8.18,7.22,9.69,12.68-3.59,4.09-4,8.77-3.15,14,6.21,39.86,7.18,80,5.71,120.21-.88,24.17-2.66,48.39-6.43,72.36-7.29,30.1-12.13,60.76-19.81,90.79-1.31,5.11.53,9.9.49,14.85-3.51,13.86-4.16,28.14-6.16,42.22-.65,4.6-1,9.23-2.78,13.56-3,5.58-6.06.69-9.85-.13,4.06,9.11,13.31,12.94,18.28,20.47a2.23,2.23,0,0,1-1,2.37c-21.49-11.12-30.76-29.57-30.94-53-.31-38.62-.18-77.24-.22-115.87q-.16-149.84-.31-299.67V360.53c-8.49.8-16.26,1.71-24,2.2-4.09.27-9,2-11.46-3.29-1.88-4,.11-8.78,5.54-12.63,6.51-4.61,12.9-9.72,20.09-13,8.46-3.84,10.09-9.56,9.93-18.1-.51-28.3-.18-56.61-.24-84.91,0-9.48,1.63-18.52,6.35-26.86,1.85-1.12,3,4.1,6.15-.38,6.12-8.66,15.17-14.64,24.85-19.19a67.08,67.08,0,0,0,20.84-14.85c12.69-.91,25.08-4.38,37.87-4.39,1.8-1,3.93-.19,5.76-1Z" transform="translate(-534.23 -161.65)"/><path class="cls-3" d="M858.26,342.24c.18-11.13-3.83-21.48-6.78-31.89-7.2-25.46-15-50.76-23.25-75.91a397.46,397.46,0,0,0-19.15-48c-6.18-12.92-15.9-18-29.69-19.14-13.51-1.1-27-1.92-40.64-3.28l13.86-.88,18.17,1c1.87.71,4,0,5.8.94l12.19,1c1.77.88,3.88,0,5.61,1.07l25.76,2.54c5.48,6.42,12.74,10.18,20,14.21,11.49,6.38,23.31,12.78,29,25.37.39-1.3-.52-4.3,3.18-3.69,4.28,8.54,5.51,17.72,5.55,27.1.11,28.63.31,57.27.05,85.89-.06,6.05,1.52,9.65,7,12.56,7.63,4,14.69,9.11,22,13.8a46.67,46.67,0,0,1,4.78,3.6c3.53,3,4,6.94,2.55,10.9-1.28,3.57-4.85,2.91-7.76,2.82A170.8,170.8,0,0,1,880,359.84c-2.86,3.26-1.77,6.74-1.77,9.92q.1,204.74.38,409.48c0,12.42-.16,24.67-7.22,35.59-3.8-.67-6,2.14-8.68,3.93s-5,1.88-6.23-1.7c-4.32-18.86-3.46-38.42-7.83-57.27.09-15.84-5-30.78-8.14-46-3.91-19.23-7.6-38.51-12.36-57.56-7.52-49.14-8.45-98.48-5.23-148q1.49-22.91,4.7-45.57A24.8,24.8,0,0,0,826,449c6.15-6.1,7.95-14.1,9.89-22.15,6.56-27.13,15.46-53.66,20.44-81.19A6.26,6.26,0,0,1,858.26,342.24Z" transform="translate(-534.23 -161.65)"/><path class="cls-4" d="M826.67,847.4c-10,3.93-20.78,4.27-31.25,5.52a604.08,604.08,0,0,1-169.73-3.66,18.33,18.33,0,0,1-3.64-1.43,6.22,6.22,0,0,1,1.93-2.15c3.76-1.64,4.45-6.74,8.75-7.81,21.49,2.08,42.9,4.56,64.5,5.58a641.47,641.47,0,0,0,64.75,0c19.28-1,38.39-3.22,57.52-5.4C824.65,839,824.54,844.06,826.67,847.4Z" transform="translate(-534.23 -161.65)"/><path class="cls-5" d="M872.35,205.6c-2.21.94-1,3.72-3.34,5.49-10.44-14.33-24.8-23.64-40.8-30.78-4.49-2-6.94-5.87-8.07-10.6C843.79,172.58,862.11,183.22,872.35,205.6Z" transform="translate(-534.23 -161.65)"/><path class="cls-5" d="M628.43,169.54a16.12,16.12,0,0,1-9.79,11.73c-15.33,6.67-28.78,15.89-39.17,29.08-2.72-1.71-.65-4.92-2.88-6.39,9.1-17.86,23-29.28,43.16-32.52C622.67,171,625.54,170.18,628.43,169.54Z" transform="translate(-534.23 -161.65)"/><path class="cls-6" d="M826.67,847.4c-6.14-1.22-6.14-1.22-4.72-8a3.73,3.73,0,0,1,2.67-3.76c11.82-4.17,22.88-9.94,33.92-15.77,3.33-1.74,5.38-4.84,8-7.38,3.84-3.79,3.94.1,4.87,2.33C861.61,832.74,846.08,842.73,826.67,847.4Z" transform="translate(-534.23 -161.65)"/><path class="cls-2" d="M624.46,847.37l-2.41.46c-7.5-.55-14-3.56-20.14-7.74.3-.34.59-.68.88-1C611.36,838.32,618.82,840.46,624.46,847.37Z" transform="translate(-534.23 -161.65)"/><path class="cls-1" d="M672.06,164.11c-1.64,1.9-3.69,1.52-5.76,1A5.93,5.93,0,0,1,672.06,164.11Z" transform="translate(-534.23 -161.65)"/><path class="cls-1" d="M776.58,165.12c-2.07.49-4.13.95-5.8-.94C772.84,163.72,774.83,163.68,776.58,165.12Z" transform="translate(-534.23 -161.65)"/><path class="cls-1" d="M794.38,167.17c-2,.45-4,.81-5.61-1.08A6.13,6.13,0,0,1,794.38,167.17Z" transform="translate(-534.23 -161.65)"/><path class="cls-7" d="M858.26,342.24a29.15,29.15,0,0,1-.58,12.83c-7.65,28.55-15.39,57.08-22.61,85.74-1.33,5.31-3.71,7.2-8.66,7-10.71,4.64-21.59.48-32.31.21-34.5-.88-68.85-5.05-103.54-1.93-18.49,1.65-37.16,1.92-55.69,3.73-3,.29-6,.28-8.44-2-8.72-.35-8.76-.33-11.34-8.63q-13-41.85-25.93-83.73c-3.16-10.26-2.82-11,5.66-17.5A604.75,604.75,0,0,1,748.16,324.1,542.33,542.33,0,0,1,843,335.55C848.55,336.76,853.86,338.38,858.26,342.24Z" transform="translate(-534.23 -161.65)"/><path class="cls-1" d="M626.43,447.77c66.66-8.32,133.32-7,200,0,4.76,2.09,6,4.7,5.06,10.6-2.58,15.95-3.94,32.11-5.47,48.23-2.65,27.92-1.46,55.78-1.24,83.63a262.92,262.92,0,0,0,3.18,39.49c1.46,9.11,1.67,18.43,2.44,27.65-2.3,3.35-5.89,4.29-9.54,4.7-16.52,1.86-33,4.75-49.66,4.43-16.35-.32-32.47,2.94-48.84,2.16-30.22-1.43-60.48-2.07-90.53-6.11-4.29-.58-8.72-.82-11.37-5.08-.23-12,1.67-23.7,3.44-35.46.15-1,.34-2,.42-2.95a787.47,787.47,0,0,0,1.59-100.48c-1.08-21-1.77-42.3-7.11-62.9C616.9,448.44,624.16,450.66,626.43,447.77Z" transform="translate(-534.23 -161.65)"/><path class="cls-8" d="M620.44,657.49c15,3.36,30.31,4.41,45.55,5.5a842,842,0,0,0,116.83,0,402.58,402.58,0,0,0,47.56-5.59c5.06,9.51,5.18,20.28,7.6,30.44,4.51,18.93,8.07,38.08,12.57,57,1.21,5.11.6,9.71-.29,14.54-1.39,6.81-7,8.27-12.52,9.82a253.89,253.89,0,0,1-56.09,8.94c-24.88,1.32-49.79,3.81-74.75,2.3-29.85-1.79-59.85-2.48-89.13-9.57-6-1.45-12.79-2-15.45-9.27-1.86-3.84-4-7.37-2.89-12.19,6.38-28.85,12.47-57.76,18.64-86.65C618.49,660.82,618.54,658.75,620.44,657.49Z" transform="translate(-534.23 -161.65)"/><path class="cls-1" d="M602.32,761.6c10,6.88,21.75,7.93,33.11,9.66,49.15,7.45,98.59,7.29,148,3.76,17.52-1.24,35-3.53,52.06-8.06,5.44-1.44,11.07-2.63,14.74-7.58,3.61,3.64,3.09,8.75,3.66,13,2.08,15.74,3.17,31.63,4.63,47.46-7.11,8.23-17,11.68-26.63,15.64-3.29,1.36-6.64,2.6-10,3.89-11.07,3.55-22.72,5-34.06,5.67-27.77,1.7-55.64,4.2-83.45,2.19-25-1.81-50.12-2.46-74.78-7.55-12.81-.64-23.85-5.84-33.95-13.32-2.08-1.55-4-3.46-3.3-6.55,1.87-14,3.77-28,5.57-42a75.43,75.43,0,0,0,.48-8.89C598.49,765.82,599.14,763.07,602.32,761.6Z" transform="translate(-534.23 -161.65)"/><path class="cls-9" d="M577.08,362.76c2.13,3.13,2.86,6.25,3.81,9.3,7.92,25.36,15.48,50.84,24,76,5.91,17.54,8,35.6,9.24,53.8.91,12.91.74,25.88,1.91,38.81.64,7.19-.54,7.94-7,5.33-9.24-3.73-18.26-8-27.45-11.8-3.88-1.61-5.55-4-5.54-8.33q.18-80.31.14-160.63A10.72,10.72,0,0,1,577.08,362.76Z" transform="translate(-534.23 -161.65)"/><path class="cls-10" d="M576.14,597.68c0-16.62,0-33.23,0-49.85,0-9.19.77-9.69,8.66-6.1,8.76,4,17.43,8.19,26.24,12,3.83,1.69,5.29,4.06,5.38,8.37.45,20.63-1.76,41.14-2.53,61.72a18,18,0,0,1-8.41,15c-7.22,4.75-14.25,9.77-21.58,14.35-6.37,4-7.63,3.18-7.68-4.73-.11-16.95,0-33.91,0-50.86Z" transform="translate(-534.23 -161.65)"/><path class="cls-11" d="M592.41,819.85c6.76,8.46,16.66,11.72,26.12,15.68,3.65,1.53,7.42,2.8,11.13,4.19.89,7,.89,7-5.2,7.65l-21.67-8.31c-6.53-5.08-13.41-9.83-18.38-16.59-2.21-3-5.8-5.91-2.75-10.75C586.58,812.7,588.08,818.25,592.41,819.85Z" transform="translate(-534.23 -161.65)"/><path class="cls-8" d="M872.5,363.6V481.52c0,13-.45,26,.17,39,.37,7.69-1.51,12.3-9.31,15-8.46,2.89-16.38,7.36-24.64,10.9-5,2.11-6.13,1.48-5.91-3.9.65-16.29,1.75-32.56,2.59-48.85,1.87-36.15,16.66-69,26.33-103.15,2.59-9.15,5.68-18.16,8.54-27.24Z" transform="translate(-534.23 -161.65)"/><path class="cls-8" d="M872.22,537.69V654.23c-1.72,1.53-3.21.82-4.65-.05-8.53-5.16-17-10.48-25-16.45A15.79,15.79,0,0,1,836,626.05a606.68,606.68,0,0,1-3.43-64.63c0-3.09.11-6,3.53-7.5C847.79,548.7,859.51,543.4,872.22,537.69Z" transform="translate(-534.23 -161.65)"/></svg>