<svg id="Слой_1" data-name="Слой 1" xmlns="http://www.w3.org/2000/svg" viewBox="0 0 379.67 645.53"><defs><style>.cls-1{fill:#c59ec9;}.cls-2{fill:#b489bd;}.cls-3{fill:#9f72af;}.cls-4{fill:#a77bb5;}.cls-5{fill:#ae83b9;}.cls-6{fill:#f3dced;}.cls-7{fill:#ce2125;}.cls-8{fill:#ce2024;}.cls-9{fill:#29292d;}.cls-10{fill:#29282d;}.cls-11{fill:#2a282e;}</style></defs><title>car6</title><path class="cls-1" d="M627.87,202.82c15.88-7.52,33.07-9.64,50.15-12.19,25.83-3.87,51.89-3.33,77.74-1.59,21.77,1.47,43.74,3.93,64,13.53a30.33,30.33,0,0,0,14.68,17.79c3.65,2.06,7.59,4.26,8.58,9,7.69,28.28,11.85,57.18,15.49,86.19,1.13,16.74,3.92,33.29,5.15,50,.64,8.8,2.12,17.66-1.08,26.31-3.29,2.89-6.35.48-9.21-.7C804,371,752.48,364.55,699.69,367.77c-33.42,2-65.67,10.4-97.09,21.9-4.27,1.57-8.53,4.22-13.33,1.49-4.25-8.76-3-18-1.94-27.08,1.53-12.44,4.66-24.64,5.58-37.17,4.21-26.2,7.25-52.59,13.64-78.43A156.41,156.41,0,0,1,615,223C619.9,216.64,625.24,210.6,627.87,202.82Z" transform="translate(-533.96 -187.71)"/><path class="cls-2" d="M861.39,393c.87-17.14-1.48-34-3.31-51-1-9.08-3.6-18.11-2.48-27.4,2.07-12.91-2.29-25.32-3.07-38-.84-13.74-6.85-26.72-6.34-40.7,2.2-3.24,4.7-1.53,6.61,0,5.5,4.52,11.2,9,13.24,16.35,4.67,35.39,6.09,70.88,3.25,106.5-1.21,15.16-.78,30.27-.4,46.43,6-3.51,1.77-11.32,8.4-12.49.25,5.93-1.39,13,1.28,17.48,2.84,4.79,10.92,2.68,16.43,4.68,3.41,1.23,6.87,2.35,10.24,3.71,4.37,1.77,6.57,5.39,7.66,9.76,2.26,9-.6,11.78-9.7,9.3a74.82,74.82,0,0,1-20-8.5c-2.24-1.4-4.33-3.19-7.26-2-3.71-.56-7.83-3-10.2,2.32-.32.83-.67,1.65-1,2.48a62.44,62.44,0,0,0-1.6,6.75Q854,468.33,845.55,498.2a23,23,0,0,0-1.44,8.86,32.74,32.74,0,0,1-.83,6.23c-1.57,5.32-.95,10.75-.82,16.16-.06,6.34.36,12.69-.8,19a74.55,74.55,0,0,0,.14,31c1.55,12.62.55,25.29.8,37.92-.11,8.21-1.27,16.46.73,24.6,3.87,9.6,14,11.24,21.18,16.61,2.67,2.39,3.61,5.58,3.91,8.94a607.15,607.15,0,0,1,1.2,89.66,66.7,66.7,0,0,1-5.06,21.27c-7,14.73-18.23,25.63-31.94,34.06-4.12,2.54-7.37,5.45-8.81,10.13-9.5,5.32-20.06,6.83-30.6,7.9-35.51,3.59-71.14,2.82-106.75,2.08-16.94-.35-33.91-1-50.37-5.8-3.48-1-7.14-1.56-10.12-3.87.3-4.88-3.09-6.93-6.72-8.87-15.43-8.3-26.75-20.54-34.51-36.21-6.92-22.89-7.23-46.39-5.5-69.86.78-10.58,1.15-21.12,1.33-31.69.08-5-.3-10,2.23-14.54,2.18-3.63,5.89-5.1,9.56-6.56,8.19-3.25,13.74-8.82,15.72-17.6,1-35.88,1.47-71.74-.33-107.57a51.72,51.72,0,0,1-1-11.84,26.4,26.4,0,0,0-.82-9.15,37.41,37.41,0,0,1-.89-5.85,14.71,14.71,0,0,0-2-6.86c-6.52-19.79-12.51-39.73-18.21-59.74a16.75,16.75,0,0,0-1.21-3.79c-1.08-2.29-1.37-6-4.66-5.59s-2.59,4.13-3.12,6.61c-.43,2-.61,4-2.54,5.17-2.61-3.44-.39-7.92-2.48-11.57-3.78-.85-6,2.15-8.8,3.64-7,3.79-14.09,7.51-22.37,7.82-4.29.16-6.09-1.67-5.64-6,.74-7.17,3.4-12.87,11-14.86q10.59-2.76,21.23-5.27c1.93-.46,4-.29,5.36-2.14,7.5-2.82,8.84-8.22,8.31-15.86-2.86-41.2-1.23-82.47-.94-123.71,0-6.28,1.9-12.48,3.82-18.52,3.81-10.13,12.27-16.23,20.16-22.72,2-1.64,5.13-3.76,7.65,0-2.71,16.36-8.08,32.2-10,48.7-1.85,16-5.75,31.78-5.1,48a69.76,69.76,0,0,1-1.57,14.7c-3.26,16.36-5.79,32.87-4.27,49.69a86.84,86.84,0,0,0,5.85,29,46.31,46.31,0,0,0,2.06,7.3c8.26,24.44,14.5,49.52,23.55,73.73-1.09,40-.23,79.92-.49,119.87a49.52,49.52,0,0,0,1.73,13.82c.08,16.93-.15,33.87-.11,50.82.12,50.45,35.49,88.93,85.73,94.82a137.58,137.58,0,0,0,49.41-2.65c43.73-10.77,72.35-47.87,73.35-94.12.34-15.61,0-31.22-.72-46.84.92-45.18-.14-90.35.51-135.5,1.87-14.27,7.43-27.55,11.29-41.3C848.14,437.53,855.43,415.45,861.39,393Z" transform="translate(-533.96 -187.71)"/><path class="cls-3" d="M585.7,660.4c-1.17,2.4-2.33,4.79-2.14,7.59,1.46,21.3-2.48,42.43-2.08,63.72a246.92,246.92,0,0,0,6.22,49.14c1.79,4,3.71,8-.78,11.55-10.8-13.87-15.13-30-15.52-47.17-1.07-47.58,1.32-95.08,3.46-142.61a1182.16,1182.16,0,0,0-.63-126.7c-.77-12.28-.63-24.61-.91-36.91.12-3.27.27-6.54.34-9.81s1.24-5.76,4.81-6.35c3.26-.53,4.62,1.28,5.5,4.18a79.33,79.33,0,0,0,3.38,8.11c-1.21,9,1.61,17.64,1.57,26.59-.26,60.44-.12,120.88-.15,181.32C588.77,649,589.33,655.08,585.7,660.4Z" transform="translate(-533.96 -187.71)"/><path class="cls-4" d="M861.53,780.43c4.07-14.37,6.76-28.87,6.12-44-.54-12.92.16-25.89-.18-38.83-.28-10.76-1.42-21.49-1.84-32.25-.13-3.26-2.37-4.5-4.12-6.36,1.82-34.17.55-68.36.8-102.54.23-29.87.08-59.75,0-89.63,0-11.94-.18-23.88,1.58-35.74-.56-3.38-.47-6.67,3.35-8s6.85.27,8.64,4c-.82,26.54-1.84,53.08-2.4,79.62-.82,38.52-.25,77,2.09,115.48.32,5.3.14,10.62.2,15.93,2,8.06-.65,16.41,1.52,24.46q.21,11.85.41,23.68a564.53,564.53,0,0,1,0,66.71c-2,12.95-5.66,25.28-13.9,35.82C860.64,786.67,861.79,783.35,861.53,780.43Z" transform="translate(-533.96 -187.71)"/><path class="cls-5" d="M585.43,250.14c-7.85,45.39-2.16,91.16-3.8,136.73-.19,5.25,2.37,10.21,2,15.65-.52,8.47-2.68,10.14-12,8.12-2.44-42.9-2.59-85.83-1.91-128.78a82.89,82.89,0,0,1,5.87-29.16C578.45,250.23,581.42,248.19,585.43,250.14Z" transform="translate(-533.96 -187.71)"/><path class="cls-4" d="M877.29,392.69c-3.16,3.78-1.39,8.29-1.68,12.45-.26,3.62-1.48,5.58-5.36,5.43-3.35-.13-4.79-1.88-4.65-5.06.75-17.16-1.83-34.41,1.61-51.51.64-3.2.2-6.61.33-9.92,1-25.83-1.23-51.57-2-77.36-.17-5.6-3-10.89-1.87-16.65,4.92-2,7.38,1.34,9.87,4.58A107.28,107.28,0,0,1,878,286.07c.08,15.61,1.12,31.23,1,46.83C878.82,352.83,877.89,372.76,877.29,392.69Z" transform="translate(-533.96 -187.71)"/><path class="cls-6" d="M873.53,254.65l-9.87-4.57c-4.89-5.63-9.83-11.2-16.15-15.31a8.42,8.42,0,0,1-6.07-6c-3.85-4.18-8.77-7-13.54-9.81-6.55-3.85-9.37-9-8.17-16.38,14.3,4.12,26.78,11,37.07,22.11C864.91,233.4,871,242.94,873.53,254.65Z" transform="translate(-533.96 -187.71)"/><path class="cls-6" d="M585.43,250.14c-3.19,1.18-6.25,2.9-9.84,2.56,7.47-23.85,24.18-38.72,46.66-48,1.83-.75,3.74-1.29,5.62-1.93,2.17,9.49-4.09,14.5-10.36,19.5-2.34,2.47-4.13,5.68-8.07,6C599.8,233.78,592.77,242.13,585.43,250.14Z" transform="translate(-533.96 -187.71)"/><path class="cls-7" d="M861.53,780.43c3.17,2.13,1.34,5.62,2.29,8.36-4.3,10.64-12.85,17.46-21.74,23.89a75.68,75.68,0,0,1-18.27,10c-2.84-2.93-3.12-5.65.69-8,.84-.52,1.65-1.1,2.53-1.53C842,805.89,852.83,794.27,861.53,780.43Z" transform="translate(-533.96 -187.71)"/><path class="cls-8" d="M586.92,792.4c.18-3.85-.6-7.77.78-11.55.75.61,1.75,1.07,2.21,1.85,8.25,14.07,19.89,24.43,34.42,31.69,4.15,2.07,7,4.58,1.64,8.56A90.08,90.08,0,0,1,586.92,792.4Z" transform="translate(-533.96 -187.71)"/><path class="cls-2" d="M877.72,753q0-33.36,0-66.71c.17.28.46.56.49.85,2.08,21.37,1.62,42.76.45,64.15C878.63,751.85,878,752.4,877.72,753Z" transform="translate(-533.96 -187.71)"/><path class="cls-2" d="M877.32,662.58c-3.54-8-1.22-16.29-1.52-24.46C878.62,646.13,877.23,654.4,877.32,662.58Z" transform="translate(-533.96 -187.71)"/><path class="cls-9" d="M593.6,420.53c-3.13-9.61-8.41-18.92-3.91-29.53,8.75-3,17.51-6,26.25-9,45.6-15.77,92.61-20.64,140.45-16.87,32.55,2.57,64.08,10.53,94.68,22A38.5,38.5,0,0,1,861.39,393c1.56,4.17.93,8.29-.33,12.39q-13.75,44.89-27.5,89.78a16.87,16.87,0,0,0-.34,3c-1.44,2.25-3.65,2.34-6,2.16-4.49-1.16-9.06-.88-13.64-.7C773.12,495,732.45,495,691.83,496c-19.92.48-39.9,2.11-59.75,4.41-4.28.49-8.64,1.56-12.44-1.62-1-.64-3.23,0-3.15-1.64.22-4.44-2.34-8-3.49-12-5.68-19.57-11.65-39.06-17.53-58.57C593.82,424.92,595.39,422.2,593.6,420.53Z" transform="translate(-533.96 -187.71)"/><path class="cls-5" d="M609.44,228.31c2.14-2.75,4.16-5.64,8.07-6-7.08,18.58-11.35,37.91-14.51,57.47-2,12.35-5.13,24.56-5.37,37.15-.07,3.44-1.88,6.35-2.1,9.67-3.06-2.6-2.47-6.32-1.77-9.25,1.64-6.84,1.09-13.79,2-20.59,2.52-18.52,4.81-37.12,9.9-55.19Q607.55,234.94,609.44,228.31Z" transform="translate(-533.96 -187.71)"/><path class="cls-4" d="M841.44,228.76a15.72,15.72,0,0,1,6.07,6c-.68,5.44,1.23,10.51,2.39,15.64a227.89,227.89,0,0,1,5.75,38.11c.36,6.58,2.65,13,1.94,19.7-.25,2.29.2,4.71-2,6.36-3.57-27.09-6.8-54.24-14.52-80.58C840.52,232.14,839.15,230.36,841.44,228.76Z" transform="translate(-533.96 -187.71)"/><path class="cls-1" d="M828.18,498.43l5-.33.33,121.55c0,4.32,0,8.63,0,13,0,2.36,0,4.7-2.37,6.15-46.89-.77-93.63,5.26-140.56,3-22.87-1.1-45.64-3.43-68.48-4.88-4.77-1.83-4.59-5.89-4.59-10q.06-27.37,0-54.75c0-19.58.08-39.16-.06-58.73a42.79,42.79,0,0,1,2.13-14.63A888.66,888.66,0,0,1,767,493.2c16.24.76,32.54,1.21,48.67,3.68C819.63,498.79,824.16,496.57,828.18,498.43Z" transform="translate(-533.96 -187.71)"/><path class="cls-10" d="M622.14,636.87c7.24-4,15-2.27,22.46-1.54A770.8,770.8,0,0,0,777,637.16c13.9-1,27.83-1.78,41.73-2.86,5-.39,9.13.73,12.5,4.45.49,1.24,1.37,2.46,1.42,3.71,1,29.21,3.92,58.67-9.94,86.13-16.68,33-43.68,50.93-80.39,54.58-16,1.6-32,1.4-47.68-2.27-44.15-10.35-74.76-48.45-75.54-93.81-.22-12.66,0-25.32-.25-38C618.73,644.63,619.46,640.53,622.14,636.87Z" transform="translate(-533.96 -187.71)"/><path class="cls-11" d="M863.92,431.11c2.21,3,1.32,6.43,1.33,9.68q.16,104.46.09,208.93c0,3.17,3.07,8.58-3.82,9.3-7.4-3.83-15.85-6.18-20.11-14.38-2.3-8.82.66-18-1.66-26.78a377.49,377.49,0,0,0-.41-39.23,121,121,0,0,1,0-30,100.5,100.5,0,0,0,.37-19.39c2.16-5.37-.41-11.19,1.58-16.57l.45-5.34c1.59-2.71-.06-6,1.65-8.71,1.15-8.66,4.47-16.75,6.81-25.08,3.46-12.35,7.55-24.52,11.37-36.77,1.88-1.56-.08-4.64,2.36-6Z" transform="translate(-533.96 -187.71)"/><path class="cls-10" d="M585.7,660.4c-1.17-12.94-.51-25.91-.55-38.87q-.27-88.29-.21-176.57c0-3.3-2-7.44,2.41-9.82.72,7.88,3.79,15.14,6.22,22.53,4.25,12.94,6.94,26.37,12.2,39,1.31,2,.3,4.56,1.59,6.56l.49,5.45c1.36,2.8.07,6,1.46,8.82l.48,11.18c1.63,19.46.62,39,.64,58.44,0,17.82,1,35.67-.59,53.48-1.28,7.4-5.81,12.1-12.49,15C593.48,657.21,589.58,658.79,585.7,660.4Z" transform="translate(-533.96 -187.71)"/><path class="cls-5" d="M609.84,640.59c.08-20,.23-40,.22-60,0-17.32-.17-34.64-.27-52,2.3,2.09,1.77,4.88,1.77,7.49q0,48.47,0,96.93C611.55,635.69,612.11,638.48,609.84,640.59Z" transform="translate(-533.96 -187.71)"/><path class="cls-4" d="M839.37,548.63a278,278,0,0,1,0,30A52.12,52.12,0,0,1,839.37,548.63Z" transform="translate(-533.96 -187.71)"/><path class="cls-4" d="M839.75,617.86c2.23,8.82.43,17.9,1.66,26.78-3.63-4.64-1.48-10-1.86-15.07C839.26,625.69,839.66,621.77,839.75,617.86Z" transform="translate(-533.96 -187.71)"/><path class="cls-4" d="M841.32,512.67c-.36,5.53.75,11.21-1.58,16.57C840.06,523.7,837.8,517.9,841.32,512.67Z" transform="translate(-533.96 -187.71)"/><path class="cls-4" d="M843.42,498.62c-.11,3,.2,6.05-1.65,8.7C841.68,504.3,840.61,501.09,843.42,498.62Z" transform="translate(-533.96 -187.71)"/><path class="cls-5" d="M609.31,517.49c-2-2.69-1.7-5.76-1.46-8.82C610.52,511.25,609.35,514.46,609.31,517.49Z" transform="translate(-533.96 -187.71)"/><path class="cls-5" d="M593.6,420.53a8.15,8.15,0,0,1,1.87,6.11C593.19,425.11,593.56,422.77,593.6,420.53Z" transform="translate(-533.96 -187.71)"/><path class="cls-4" d="M864,430.79a7.71,7.71,0,0,1-2.36,6C861.56,434.45,861.08,432,864,430.79Z" transform="translate(-533.96 -187.71)"/><path class="cls-5" d="M607.36,503.22c-1.68-1.91-1.84-4.18-1.59-6.56C608,498.43,607.52,500.87,607.36,503.22Z" transform="translate(-533.96 -187.71)"/><path class="cls-4" d="M828.18,498.43c-4.25,0-8.7,1.6-12.56-1.55C819.87,496.92,824.21,496.17,828.18,498.43Z" transform="translate(-533.96 -187.71)"/></svg>