<svg id="Слой_1" data-name="Слой 1" xmlns="http://www.w3.org/2000/svg" viewBox="0 0 394.91 660.27"><defs><style>.cls-1{fill:#e73138;}.cls-2{fill:#e63038;}.cls-3{fill:#d01e21;}.cls-4{fill:#d12925;}.cls-5{fill:#e6323a;}.cls-6{fill:#d1302b;}.cls-7{fill:#cf1e20;}.cls-8{fill:#5f3536;}.cls-9{fill:#e9434e;}.cls-10{fill:#2b2a2f;}.cls-11{fill:#2c282d;}.cls-12{fill:#2a282d;}.cls-13{fill:#6a3537;}.cls-14{fill:#b73336;}.cls-15{fill:#b03438;}.cls-16{fill:#5e3537;}.cls-17{fill:#2b292d;}.cls-18{fill:#3a2b2f;}.cls-19{fill:#35292e;}</style></defs><title>car8</title><path class="cls-1" d="M675.61,182.82a14.54,14.54,0,0,1,3.71-1.3c37.28-2.37,74.51-2.92,111.55,3.12,1,.16,2,.27,3,.5,16.72,4,31.85,9.77,42.86,24.62,10.53,14.2,21,28.31,29.45,43.86,1.71,3.16,2.54,7,6.07,8.89,4.78,3.47,4.19,8.68,4.21,13.58.09,19.88,0,39.77,0,59.66,0-17.72-.06-35.45.07-53.17,0-3.48-1.17-7.41,2.31-10.18,2.14,3.71,1.35,7.81,1.38,11.73.12,20.32.33,40.64,0,60.95-.1,5.74,1.66,8.37,7.16,9.77,7.07,1.79,14.17,3.73,20.75,7.08,8.83,4.49,13.4,11.71,13.73,21.56.17,5-1.09,6.15-6,4.62-11.67-3.67-23.73-6.12-35.46-11.35,0,24.86,0,49.48,0,74.1q.11,67.93.25,135.89c0,2.65-.31,5.3-.48,7.94-6.34-2.4-3.53-8-3.55-12q-.32-101.49-.15-203c0,13.2,0,26.4,0,39.6-.66,117,1.52,233.92,1.08,350.88-.11,29.22-11.09,37.87-38.41,46.82-2.45.8-5.27,1.34-7.39-1.17-2.38-8,1-16.18-.4-24.26-.18-79.66-1.26-159.33.4-239,.87-41.62.92-83.25,1.89-124.84,7.11-30.39,16.57-60.18,24.47-90.39,4-15.52,4.12-15.5-10.13-22.62a9.89,9.89,0,0,1-2.36-1.81c-8.47-24.51-17.86-48.59-29.87-71.66-17.39-33.42-23.61-36.86-61-38-25.22-.74-50.36-1.84-75.56.14-4.45.35-9.42,1.06-13.1-2.94,1.61-5.28,6.18-4.13,9.93-4.42,32.81-2.53,65.63-3.39,98.32.32,1-2.78-1.57-2.93-2.88-4-4.25-2-9.6.1-13.36-3.62a3.07,3.07,0,0,1,.21-2.42c-17.27-2.08-34.57-.3-51.83-.82-6.91-.2-13.83.06-20.75-.08C682.15,185.52,678.37,186,675.61,182.82Z" transform="translate(-526.92 -179.85)"/><path class="cls-2" d="M576.71,262.43c3.54-1.44,4.17-5,5.62-7.9,10.61-21,24.85-39.35,40.66-56.58a10.31,10.31,0,0,1,3.2-2.36c15.55-7,31.38-13,48.84-12.71.07,3.91-4,3.58-5.74,5.7a24.57,24.57,0,0,1-2.23,2.75c-1.39,1.21-3.27,1.81-4.31,3.45-.56.93-1.15,1.84-1.79,2.7-1.16,2.27,2.7,2.73,1.79,4.93a6.68,6.68,0,0,1-6.12,2.81c-12.39-.37-19.13,6.9-25,16.78-13.68,23.21-22,48.44-29.33,74.12-1.65,5.75-2.27,11.8-5,17.26a7.23,7.23,0,0,1-2.92,2.66c-9.31,3.45-10.15,10-7.62,18.56,9.16,30.95,16.66,62.39,26.95,93-.86,32-1.16,64,.12,95.83,3.63,89.81.31,179.65,2.15,269.45-2.52,7.48,2.94,15.9-2.64,23-26.17-3.55-39.88-17.25-40.18-40.28-1.76-131.49-.06-263-.8-371.53,0,65.71,0,154.36-.07,243,0,4.14,1.49,8.76-2.33,12.25-1.45-6.9-.86-13.91-.88-20.86q-.25-125.77-.39-251.54c0-3.65,0-7.31,0-12.55-2.79,3.2-4.9,5.18-7.81,6-9.27,2.64-18.46,5.57-27.77,8.09-5.44,1.48-6.45.47-6.25-5.28.29-8.66,4.25-15.21,11.65-19.68,5.18-3.13,11-4.62,16.68-6.55,16-5.42,13.29-1,13.42-18.87.14-18.63,0-37.27.07-55.9,0-3.95-.52-8,1.41-11.76,3.34,2.86,2.19,6.77,2.21,10.27.12,18.93.06,37.87.06,56.8,0-19.79-.08-39.59.07-59.39C572.56,272.66,572,266.79,576.71,262.43Z" transform="translate(-526.92 -179.85)"/><path class="cls-3" d="M832.3,814.88a58.63,58.63,0,0,0,36.41-17.7c5-5.08,5.49-12.7,5.68-19.7.26-10,.1-20,.1-30q0-184.93,0-369.86c0-3,0-6,.11-9,0-1.46.69-2.87,2.13-2.82,1.93.07,2.66,1.48,2.45,3.48-.33,3.3-.64,6.62-.65,9.93q0,102.47.13,204.93c0,3.52-1.26,7.37,1.55,10.54.12,14,.31,27.95.34,41.93q.13,66,.16,131.89c0,33.65-20.28,57.3-53.59,62.77-11.91,1-11.91,1-12.44-8.77C818.57,815.5,825.11,814.42,832.3,814.88Z" transform="translate(-526.92 -179.85)"/><path class="cls-4" d="M570.05,659.41c.17-3.65.5-7.3.5-10.94q0-135.86,0-271.69c0-3.52-.74-7.21.9-10.52,3.63,0,2.92,2.5,3,4.28.17,2.65.07,5.32.07,8q0,171.8,0,343.6c0,20.25,2.49,40.41,2.17,60.71-.13,8.74,3.55,16.94,12.34,21.1,8.34,3.93,15.79,10,25.43,10.89,8.14.21,15.77,2,22.44,7-1.15,4.24-2.17,8.56-6.52,10.89-28-1.66-51.92-19.9-58.62-44.78a38.78,38.78,0,0,1-1.67-9.79C570,738.57,569.16,699,570.05,659.41Z" transform="translate(-526.92 -179.85)"/><path class="cls-5" d="M630.41,832.71a13.49,13.49,0,0,0,2.2-6.46c.09-2.49,2-3.16,4-3.6,3.88-3.21,8.25-1.67,12.45-1.17,52.41,6.3,104.76,7,157-1.79,3.53-.59,7.28-1.69,10.31,1.52.39,9.3.39,9.3,10.71,10.08-8.88,3.12-18.25,3.23-27.43,4.36-54.19,6.65-108.33,5.66-162.4-1.48C634.94,833.87,632.69,833.2,630.41,832.71Z" transform="translate(-526.92 -179.85)"/><path class="cls-6" d="M576.71,262.43c-5.06,29.33-.09,59.16-3.72,88.57-1.18-1.29-.58.83-1.66.05a1.51,1.51,0,0,1-.5-.85,16,16,0,0,1-.39-2.91q-.15-38.39-.26-76.77c0-6.91,1.77-13.31,5.63-21.36C576.21,255,576.46,258.7,576.71,262.43Z" transform="translate(-526.92 -179.85)"/><path class="cls-7" d="M878.83,272.4q-.2,33.44-.41,66.87c0,3.48.66,7.12-1.24,11-3.63-1.91-2.69-4.83-2.7-7.15q-.13-26.46,0-52.93c0-9.3.31-18.6-2.26-27.68l1-13.09C877.18,257.84,878.94,264.88,878.83,272.4Z" transform="translate(-526.92 -179.85)"/><path class="cls-8" d="M666.49,186.84c1.58-4.05,6.38-1.14,8.53-4l.59-.06c12.64-.16,25.28-.48,37.91-.46,15.66,0,31.31.3,47,.59,3.09.06,6.69-.81,9,2.8-3.67,2.25-7.42.72-11,1.2-5.9,1.74-11.93.73-17.87.64-20.32-.31-40.57.56-60.83,2C675.26,189.91,670.38,190.38,666.49,186.84Z" transform="translate(-526.92 -179.85)"/><path class="cls-9" d="M614.46,794.18c-3-3.8-2-8.29-2-12.53-.06-73.56,1.19-147.16-.55-220.69-1-41.21-.86-82.4-1.45-123.6-.06-3.88-1.1-8.06,1.87-11.51,5.84-6.54,14.13-5,21.3-5.62,37-3.07,74.16-6,111.34-4.3,24.84,1.16,49.74,1.72,74.48,4.41,5.79.63,12.1.27,17,4.63,0,32.64,1.1,65.33-.24,97.91-3.65,88.52-.66,177-1.78,265.56,0,1.66-.18,3.32-.27,5-3,6.18-9,7.55-14.77,9.13-22.65,6.23-46,8-69.23,9-32.61,1.37-65.28.82-97.73-3.79a208.42,208.42,0,0,1-28.33-6C620,800.52,615.62,799.32,614.46,794.18Z" transform="translate(-526.92 -179.85)"/><path class="cls-10" d="M836.46,425c-23.89-1.61-47.72-3.84-71.67-4.87a921.86,921.86,0,0,0-95.79.76c-18.92,1.16-37.85,2.21-56.63,5-3.11-.84-3.66-3.49-4.39-6.09-8.38-29.78-16.87-59.54-25.11-89.37-2.42-8.74-.42-12,8-15.41,1.84-.74,3.71-1.42,5.56-2.13,3.59-3.44,8.24-4.1,12.84-4.92a652.28,652.28,0,0,1,139.2-9.86,629.5,629.5,0,0,1,84.36,8.8c4.92.85,9.92,1.6,13.63,5.5,3.51,1,7.18,1.58,10.5,3,6.17,2.67,8.09,7,6.23,13.67Q849.93,377,836.46,425Z" transform="translate(-526.92 -179.85)"/><path class="cls-9" d="M846.47,312.37a664.41,664.41,0,0,0-139-11.25c-34.63.94-69.06,4.13-103.08,11a74,74,0,0,1-7.91.75c1.24-13.61,5.7-26.45,9.89-39.29,3.49-10.69,8.15-21,12.09-31.53,4.21-11.29,11-21.15,17.36-31.19,3.71-5.79,9.85-7.38,16.35-8,3.51-.31,7.41,1.22,10.37-2a2.51,2.51,0,0,1,3.56-.21c16,1.44,31.82-2,47.71-1.61,20.17.45,40.41.92,60.47,3.69a3.38,3.38,0,0,0,1,.05c18.06-3.1,26.35,9.08,34.08,21.94a377.63,377.63,0,0,1,34.78,76C845.35,304.5,846.94,308.23,846.47,312.37Z" transform="translate(-526.92 -179.85)"/><path class="cls-11" d="M842.56,773.74c-2-8.71-1.19-15.31-1.23-21.74-.28-44-.27-88-.32-131.93q-.07-76.47-.15-153a61.1,61.1,0,0,1,2.07-16.79q8-28.36,16.14-56.69c.5-1.74.49-4,3.43-5.27.16,3.38.42,6.49.43,9.6.08,18.33.06,36.66.13,55,.35,90,.56,179.93,1.23,269.89C864.43,742.63,853.64,756.85,842.56,773.74Z" transform="translate(-526.92 -179.85)"/><path class="cls-12" d="M614.46,794.18c7.73,5.84,17.19,6.62,26.16,8.57,16.56,3.59,33.49,4.86,50.34,5.62,34.51,1.54,69,1.2,103.32-3.79,13.67-2,27.66-3.64,39.89-11.16.91,7.29.64,14.47-1.87,21.46-4.82,3.35-10.88,3.58-15.94,6.33-41.42,8-83.25,9-125.23,7.32-18.31-.71-36.44-3.11-54.53-5.88-7.28-2.87-15.49-3.1-22.11-7.82C613.74,808,609.86,801.07,614.46,794.18Z" transform="translate(-526.92 -179.85)"/><path class="cls-13" d="M666.06,200.68l-3.56.21c-1,0-1.9-.06-2.83-.18-1.71-.24-4.55.76-4.59-1.77-.05-3.25,3.34-1.71,5.14-2.47a29.81,29.81,0,0,1,15.18-4.14c30.39-.47,60.78-3.93,91.21-.26,4.53.55,8.06,2.78,12,4.45,1.38.54,3.85.73,2,3-1.4,1.66-3.67.79-5.64.52-27.7-3.84-55.48-3.94-83.3-1.58C683.1,199.15,674.4,197.9,666.06,200.68Z" transform="translate(-526.92 -179.85)"/><path class="cls-14" d="M778.59,196.52c-19.69-1.72-39.46-5-59.14-3.13-17.43,1.69-35-.17-52.32,3.19-2.21.43-4.6-.05-6.91-.11.07-1.19.15-2.38.22-3.56,30.4-6.16,61.2-5.29,91.9-4.33,7.34.23,14.73,3,22.38,2.17C777,192,776.85,194.89,778.59,196.52Z" transform="translate(-526.92 -179.85)"/><path class="cls-15" d="M666.49,186.84c26.5.09,52.9-3.34,79.43-1.91,4.28.23,8.67-.41,12.59,2,0,.53.08,1.06.14,1.59-2.91,2.43-6.36,1.17-9.55,1.24-24.8.58-49.64-1.27-74.38,1.94-2.75.36-6,1.2-8.49-1.28C666.32,189.24,666.4,188,666.49,186.84Z" transform="translate(-526.92 -179.85)"/><path class="cls-16" d="M666.23,190.44c13.56-.18,27-1.95,40.64-1.71,17.26.3,34.52-.09,51.78-.19,5.41.36,11-.23,16.07,2.21-4.71,4-10.08,1.74-15.09,1.28-23.15-2.13-46.29-1.77-69.42,0-9.92.74-19.83,1.09-29.77.92C661.45,189.93,664.17,191,666.23,190.44Z" transform="translate(-526.92 -179.85)"/><path class="cls-17" d="M602.81,773.53c-11.61-16.9-21.4-32-21.31-52.8.44-107.64-.22-215.29-.5-322.94,0-3.54,0-7.08,0-10.69,3.53.39,3,2.85,3.57,4.57,3,9.87,5.79,19.8,8.94,29.61a220.2,220.2,0,0,1,10.76,69.6c-.6,90.65-.1,181.31,0,272C604.22,765.73,604.81,768.71,602.81,773.53Z" transform="translate(-526.92 -179.85)"/><path class="cls-18" d="M615.16,444.74c1.66,2.4,2.58,3.14,2.68,4,2.8,23.4,6.82,46.66,8.61,70.19,1.67,21.87,3.92,43.71,5.24,65.6,1.27,21.25,2.14,42.56,2.38,63.85.45,38.62.3,77.24.39,115.86,0,2.67,0,5.34-.25,8a3.85,3.85,0,0,1-3.77,3.88c-2.82.12-4.23-1.65-4.37-4.33s-.06-5.32,0-8c.69-60.93,2.15-121.86.07-182.78q-2.25-65.85-10.93-131.2C615.05,448.85,615.16,447.87,615.16,444.74Z" transform="translate(-526.92 -179.85)"/><path class="cls-19" d="M831.14,460.62c-3.75,24.29-5.18,48.79-7,73.27-3.87,52.84-4,105.75-3.28,158.68.33,24,1.07,47.92,1.6,71.89,0,2.33,0,4.66,0,7-.05,2.75-1.51,4.5-4.24,4.42s-4-2.06-4.07-4.71c-.06-1.67-.1-3.33-.1-5,0-47.29-.64-94.58.71-141.85,1.64-57.25,5.83-114.3,14.24-171,.38-2.55,1.26-5,2-8,2.22,3.32.75,6.42,1.23,9.31C830.94,456.48,831.72,458.68,831.14,460.62Z" transform="translate(-526.92 -179.85)"/><path class="cls-1" d="M831.14,460.62c-.69-2.18-.71-4.23,1.11-5.94C832.38,456.75,832.85,458.89,831.14,460.62Z" transform="translate(-526.92 -179.85)"/></svg>