<svg id="Слой_1" data-name="Слой 1" xmlns="http://www.w3.org/2000/svg" xmlns:xlink="http://www.w3.org/1999/xlink" viewBox="0 0 474.87 475.11"><defs><style>.cls-1{fill:none;clip-rule:evenodd;}.cls-2{clip-path:url(#clip-path);}.cls-3{fill:#4895aa;}.cls-4{fill:#2d6478;}.cls-5{fill:#d1e3ee;}.cls-6{fill:#8dbadd;}.cls-7{fill:#153543;}.cls-8{fill:#f7e597;}</style><clipPath id="clip-path"><polygon class="cls-1" points="0 0 474.87 0 474.87 475.11 0 475.11 0 0 0 0"/></clipPath></defs><g class="cls-2"><path class="cls-3" d="M237.18,248.66l11.06-.11a4.34,4.34,0,0,1,3-.68c2.68,0,5.35-.07,8,0,5.26-.13,10.53,0,15.8,0a3.7,3.7,0,0,1,2.59.71l25.73,0a4.36,4.36,0,0,1,3.06-.68c2.67,0,5.34-.07,8,0,5.27-.13,10.53,0,15.8,0a3.7,3.7,0,0,1,2.59.71c3.14,0,6.28.05,9.42,0,1.13,0,1.62.24,1.62,1.51q-.07,41.52-.09,83a3.71,3.71,0,0,1-2.82.7q-15.48,0-31,0c-3.1,0-3.66-.54-3.65-3.6,0-2.59-.34-5.19.3-7.75.5-1,1.46-1,2.36-1,1.45-.07,2.89,0,4.34,0,5.76,0,7.82-2.14,7.74-7.9,0-4.13,0-8.25,0-12.38-.06-5.16-2.47-7.71-7.56-7.72-19-.06-38.09,0-57.14,0a12,12,0,0,0-4,.74,5.08,5.08,0,0,0-3.38,5q-.33,8.25,0,16.51c.14,3.37,2.35,5.4,5.79,5.7,1.9.18,3.82,0,5.74.09,1,0,2-.1,2.74.83.56,3.68,1,7.36-.25,11a4.75,4.75,0,0,1-2.88.57c-6.67,0-13.34,0-20,0-3.09,0-3.65-.56-3.66-3.63q0-39.36,0-78.72A3.68,3.68,0,0,1,237.18,248.66Z"/><path class="cls-3" d="M226.18,344c-7.43,0-14.86.06-22.29.06-18.78,0-37.55,0-56.32,0-1.91,0-2.41-.47-2.4-2.38.1-17.6.09-35.2.11-52.79.88-.83,2-.72,3.05-.72q37.33,0,74.68,0c3.38,0,3.88.51,3.89,3.86q0,24.44,0,48.87C226.9,342.05,227,343.16,226.18,344Z"/><path class="cls-4" d="M226.18,344c0-17.52-.05-35,0-52.55,0-2-.55-2.54-2.56-2.54q-39.18.09-78.37,0l0-11c2.36-1.37,4.92-.49,7.39-.69q9.15-.14,18.31,0,9.2-.14,18.39,0,9.19-.14,18.38,0c4.74-.12,9.47,0,14.21-.05,3.46,0,3.49,0,3.5-3.4,0-7.25,0-14.5,0-21.75,0-1.19-.24-2.47.72-3.48l11,0q0,40.72,0,81.45c0,3,0,3,3,3l22.75,0a1.65,1.65,0,0,1,.67,1.39c-.09,3.21.82,6.48-.59,9.6Z"/><path class="cls-5" d="M251.89,167.71c0-5.28-.08-10.57.08-15.84.06-2.08-.61-2.53-2.6-2.53q-35.87.1-71.73,0c-3,0-3,0-3-2.95,0-4.44,0-8.88,0-13.32,0-1.53.35-2.14,2-2.14,28.43.05,56.87,0,85.3.06,6.31,0,12,5.77,12,12.11.06,8.18,0,16.37,0,24.56-.76.83-1.78.76-2.76.77q-8.31.06-16.63,0C253.67,168.47,252.64,168.54,251.89,167.71Z"/><path class="cls-4" d="M277.7,248.57l-18.47,0c-.8-.89-.69-2-.69-3.05q0-30,0-60a5.11,5.11,0,0,1,.58-3.09,4,4,0,0,1,2.81-.68c4.32,0,8.65,0,13,0a3.48,3.48,0,0,1,2.77.75Z"/><path class="cls-5" d="M226.17,248.62c0,9.08,0,18.17,0,27.25,0,1.71-.41,2.19-2.14,2.15-5.42-.14-10.85-.09-16.28-.12-.84-.86-.75-2-.75-3q0-26.51,0-53a5.54,5.54,0,0,1,.69-3.09q8.06-3.12,16.12-6.24c2-.76,2.36.13,2.36,1.93C226.14,225.86,226.17,237.24,226.17,248.62Z"/><path class="cls-6" d="M207.71,218.79q0,26.46,0,52.93,0,3.09,0,6.18H189.35c-.83-.87-.72-2-.72-3q0-22.89,0-45.77a4.45,4.45,0,0,1,.69-3Z"/><path class="cls-5" d="M307.08,182.4c0-5.43,0-10.86.07-16.29,0-1.64-.54-2.08-2.12-2.06-6,.08-11.95,0-17.92.06-1.59,0-2.16-.44-2.11-2.07.11-3.51.1-7,0-10.55,0-1.54.35-2.15,2-2.14,10,.07,20.07,0,30.11.05,6.31,0,12,5.79,12,12.12.05,7,0,13.92,0,20.88-.75.84-1.78.77-2.75.78q-8.33,0-16.63,0C308.86,183.17,307.84,183.24,307.08,182.4Z"/><path class="cls-4" d="M332.89,248.57l-18.46,0c-.8-.89-.69-2-.69-3.05q0-22.64,0-45.29a5,5,0,0,1,.58-3.09,4.12,4.12,0,0,1,2.81-.68q6.48,0,13,0a3.47,3.47,0,0,1,2.77.75Z"/><path class="cls-5" d="M189.32,226.05l0,51.85H171c-.85-.86-.75-2-.75-3q0-19.4,0-38.8a4.37,4.37,0,0,1,.69-3.06l17.28-6.78A4.68,4.68,0,0,1,189.32,226.05Z"/><path class="cls-6" d="M170.92,233q0,22.45.07,44.89H152.55c-.83-.87-.71-2-.71-3q0-15.84,0-31.69a4.61,4.61,0,0,1,.8-3.26Z"/><path class="cls-5" d="M152.63,239.91q0,19-.08,38l-7.3.09c-4.21,0-8.42-.09-12.62,0-1.77.05-2.19-.56-2.17-2.23q.1-12.72,0-25.44c0-1.63.61-2.19,2-2.71C139.22,245.13,145.92,242.49,152.63,239.91Z"/><path class="cls-7" d="M259.25,182.52q0,33,0,66l-11,0q0-33,0-66.06c2.08-1.41,4.42-.63,6.64-.73C256.36,181.7,258,181.32,259.25,182.52Z"/><path class="cls-4" d="M307.17,322c0,3,.05,6-.09,8.91-.09,1.72.47,2.2,2.19,2.19,11.52-.06,23,0,34.57,0,0,3.21,0,6.42.09,9.63,0,1.14-.41,1.39-1.46,1.38Q321.1,344,299.74,344c-.87-1-.67-2.15-.67-3.28,0-7-.09-13.92,0-20.87.06-4,.14-8-2.76-11.23.06-1.56,1.26-1.71,2.39-1.86,4.89-.61,8.83,3,9.05,8.18C307.61,317.33,308.38,319.76,307.17,322Z"/><path class="cls-6" d="M259.25,182.52l-11,0c-4.63-.49-7.53-3.52-7.37-7.71s3.44-7,8-7l3,0H274l3,0c4.56,0,7.86,2.9,8,7s-2.77,7.26-7.36,7.71Z"/><path class="cls-6" d="M332.86,197.17l-18.42.05a19.13,19.13,0,0,1-11,0c-4.62-.48-7.53-3.52-7.37-7.71s3.45-7,8-7l3,0h22.14l3,0c4.57,0,7.86,2.91,8,7S337.45,196.72,332.86,197.17Z"/><path class="cls-7" d="M303.45,197.18l11,0q0,25.65,0,51.31l-11,0Q303.45,222.87,303.45,197.18Z"/><path class="cls-4" d="M292.41,344H270.3c-.87-1-.67-2.15-.67-3.28,0-7-.08-13.92,0-20.87.05-4,.13-8-2.76-11.23.05-1.56,1.26-1.71,2.39-1.86,4.89-.61,8.82,3,9,8.19.09,2.37.07,4.75,0,7.13s0,4.74,0,7.1c0,3.08.09,3.15,3.26,3.16,2.68,0,5.36,0,8,0a4.3,4.3,0,0,1,2.86.62A19.94,19.94,0,0,1,292.41,344Z"/><path class="cls-7" d="M267.07,308.24c3,2.62,3.38,6,3.3,9.73-.17,8.68-.07,17.37-.07,26.06H263c0-3.66-.05-7.32-.08-11s0-7.34,0-11c-1.17-2.22-.42-4.6-.59-6.9a8.09,8.09,0,0,1,2.58-6.16C265.49,308.44,266.09,307.72,267.07,308.24Z"/><path class="cls-7" d="M292.41,344c0-3.66-.05-7.33-.07-11-.83-1-.65-2.16-.65-3.28,0-2.51-.08-5,0-7.54,0-2.35,0-4.71,0-7.07a8.12,8.12,0,0,1,2.63-6.2c.6-.53,1.19-1.22,2.15-.71,3,2.62,3.37,6,3.3,9.73-.18,8.68-.07,17.37-.07,26.06Z"/><path class="cls-5" d="M296.51,308.24c-2.81,1.24-3.87,3.61-4.19,6.46-.18.15-.32.37-.55.4a53.27,53.27,0,0,1-13.47,0c-.23,0-.38-.25-.55-.4.29-4.65-5.44-9.52-10.68-6.45-2.81,1.24-3.87,3.61-4.19,6.46-4.74,2.25-10.7-.67-11.41-5.91-.63-4.61-.28-9.3-.13-14a2.11,2.11,0,0,1,.58-1.23,8.09,8.09,0,0,1,4.19-.94q28.93,0,57.88,0c5,0,7.82,2.84,7.84,7.81,0,4.44,0,8.87,0,13.3a2.5,2.5,0,0,1-2.17,1.48,91.47,91.47,0,0,1-11.23,0,1.82,1.82,0,0,1-1.2-.61C307.48,310,301.74,305.17,296.51,308.24Z"/><path class="cls-8" d="M277.67,270.68c0,2,0,4,0,6,0,1-.33,1.36-1.33,1.35q-6-.06-12,0c-1.08,0-1.47-.35-1.46-1.45.05-4,0-8,0-11.93,0-1,.32-1.35,1.32-1.34,4,0,8,0,12,0,1.08,0,1.5.35,1.46,1.45C277.63,266.7,277.67,268.69,277.67,270.68Z"/><path class="cls-8" d="M307.11,270.84c0,1.84,0,3.67,0,5.51,0,1.1-.21,1.67-1.5,1.65q-5.85-.11-11.72,0c-1.26,0-1.55-.47-1.53-1.62.05-3.82,0-7.65,0-11.47,0-1.11.2-1.68,1.5-1.65,3.9.07,7.81.06,11.72,0,1.25,0,1.57.47,1.53,1.61C307.06,266.86,307.11,268.85,307.11,270.84Z"/><path class="cls-6" d="M251.92,293.6v12.79c0,5.64,2.73,8.32,8.45,8.32h2.51c0,2.45,0,4.89,0,7.34-2.6,0-5.19,0-7.79,0a6.59,6.59,0,0,1-6.85-6.72c-.05-5.33-.09-10.67,0-16C248.32,296.79,249.26,294.6,251.92,293.6Z"/><path class="cls-6" d="M307.19,314.69c3.64,0,7.28,0,10.92,0a6.23,6.23,0,0,0,3.68-.94c.16,5.75-2.28,8.28-8,8.27-2.21,0-4.42,0-6.63,0C307.18,319.58,307.18,317.14,307.19,314.69Z"/><path class="cls-8" d="M178.33,311.27c0,4.13-.06,8.27,0,12.4,0,1.53-.29,2.17-2,2.11-3.6-.13-7.21-.1-10.81,0-1.42,0-2-.28-2-1.86.08-8.57.06-17.14,0-25.71,0-1.33.26-1.92,1.76-1.88,3.75.1,7.51.1,11.26,0,1.5,0,1.77.55,1.75,1.88C178.29,302.55,178.33,306.91,178.33,311.27Z"/><path class="cls-8" d="M207.76,311.13c0,4.21-.07,8.42,0,12.63,0,1.66-.52,2.06-2.08,2-3.6-.11-7.21-.08-10.81,0-1.3,0-1.91-.21-1.9-1.73.07-8.64.05-17.29,0-25.94,0-1.19.19-1.81,1.6-1.77,3.83.08,7.67.08,11.5,0,1.35,0,1.68.47,1.66,1.73C207.73,302.41,207.76,306.77,207.76,311.13Z"/><path class="cls-3" d="M292.32,322c0,3.66,0,7.33,0,11-4.26,0-8.52,0-12.78.07-1.54,0-2-.52-1.91-2,.11-3,.06-6.08.08-9.12a1.94,1.94,0,0,1,1.23-.57q6.07-.29,12.15,0A1.76,1.76,0,0,1,292.32,322Z"/><path class="cls-6" d="M292.32,322l-14.59,0c0-2.44,0-4.88,0-7.33h14.57Z"/></g></svg>