<?xml version="1.0" encoding="utf-8"?>
<!-- Generator: Adobe Illustrator 26.1.0, SVG Export Plug-In . SVG Version: 6.00 Build 0)  -->
<svg version="1.1" id="Слой_1" xmlns="http://www.w3.org/2000/svg" xmlns:xlink="http://www.w3.org/1999/xlink" x="0px" y="0px"
	 viewBox="0 0 474.9 475.1" style="enable-background:new 0 0 474.9 475.1;" xml:space="preserve">
<style type="text/css">
	.st0{fill:#4895AA;}
	.st1{fill:#2D6478;}
	.st2{fill:#D1E3EE;}
	.st3{fill:#8DBADD;}
	.st4{fill:#153543;}
	.st5{fill:#F7E597;}
</style>
<g>
	<g>
		<path class="st0" d="M237.2,261.7l24-0.2c1.9-1.3,4.2-1.8,6.5-1.5c5.8,0,11.6-0.2,17.4,0c11.4-0.3,22.9,0,34.3,0
			c2-0.2,4,0.3,5.6,1.5h55.9c2-1.3,4.3-1.8,6.6-1.5c5.8,0,11.6-0.2,17.4,0c11.4-0.3,22.9,0,34.3,0c2-0.2,4,0.3,5.6,1.5
			c6.8,0,13.6,0.1,20.4,0c2.5,0,3.5,0.5,3.5,3.3c-0.1,60.1-0.2,120.1-0.2,180.2c-1.7,1.3-4,1.9-6.1,1.5c-22.4,0-44.8,0-67.3,0
			c-6.7,0-7.9-1.2-7.9-7.8c0-5.6-0.7-11.3,0.7-16.8c1.1-2.2,3.2-2.2,5.1-2.2c3.1-0.2,6.3,0,9.4,0c12.5,0,17-4.6,16.8-17.1
			c0-9,0-17.9,0-26.9c-0.1-11.2-5.4-16.7-16.4-16.8c-41.2-0.1-82.7,0-124,0c-3,0-5.9,0.6-8.7,1.6c-4.6,1.6-7.5,6-7.3,10.9
			c-0.5,11.9-0.5,23.9,0,35.8c0.3,7.3,5.1,11.7,12.6,12.4c4.1,0.4,8.3,0,12.5,0.2c2.2,0,4.3-0.2,5.9,1.8c1.2,8,2.2,16-0.5,23.9
			c-1.9,1.1-4.1,1.5-6.3,1.2c-14.5,0-29,0-43.4,0c-6.7,0-7.9-1.2-7.9-7.9c0-57,0-113.9,0-170.9C235.2,265.8,235.8,263.5,237.2,261.7
			z"/>
		<path class="st0" d="M213.3,468.7c-16.1,0-32.3,0.1-48.4,0.1c-40.8,0-81.5,0-122.3,0c-4.1,0-5.2-1-5.2-5.2
			c0.2-38.2,0.2-76.4,0.2-114.6c1.9-1.8,4.3-1.6,6.6-1.6c54,0,108.1,0,162.1,0c7.3,0,8.4,1.1,8.4,8.4c0,35.4,0,70.7,0,106.1
			C214.8,464.4,215.1,466.8,213.3,468.7z"/>
		<path class="st1" d="M213.3,468.7c0-38-0.1-76,0-114.1c0-4.3-1.2-5.5-5.6-5.5c-56.7,0.1-113.4,0.1-170.1,0v-23.9
			c5.1-3,10.7-1.1,16-1.5c13.2-0.2,26.5-0.2,39.7,0c13.3-0.2,26.6-0.2,39.9,0c13.3-0.2,26.6-0.2,39.9,0c10.3-0.3,20.6,0,30.8-0.1
			c7.5,0,7.6,0,7.6-7.4c0-15.7,0-31.5,0-47.2c0-2.6-0.5-5.4,1.6-7.6h23.9c0,58.9,0,117.9,0,176.8c0,6.5,0,6.5,6.5,6.5H293
			c1,0.7,1.5,1.8,1.5,3c-0.2,7,1.8,14.1-1.3,20.8L213.3,468.7z"/>
		<path class="st2" d="M269.1,86c0-11.5-0.2-22.9,0.2-34.4c0.1-4.5-1.3-5.5-5.6-5.5c-51.9,0.1-103.8,0.1-155.7,0
			c-6.5,0-6.5,0-6.5-6.4c0-9.6,0-19.3,0-28.9c0-3.3,0.8-4.6,4.3-4.6c61.7,0.1,123.5,0,185.2,0.1c13.7,0,26,12.5,26,26.3
			c0.1,17.8,0,35.5,0,53.3c-1.6,1.8-3.9,1.6-6,1.7c-12,0.1-24.1,0.1-36.1,0C273,87.6,270.7,87.8,269.1,86z"/>
		<path class="st1" d="M325.1,261.5H285c-1.7-1.9-1.5-4.3-1.5-6.6c0-43.4,0-86.8,0-130.2c-0.3-2.3,0.1-4.7,1.3-6.7
			c1.8-1.2,4-1.8,6.1-1.5c9.4,0,18.8,0,28.2,0c2.1-0.3,4.3,0.2,6,1.6L325.1,261.5z"/>
		<path class="st2" d="M213.3,261.6c0,19.7,0,39.4,0,59.2c0,3.7-0.9,4.8-4.6,4.7c-11.8-0.3-23.6-0.2-35.3-0.3
			c-1.8-1.9-1.6-4.3-1.6-6.5c0-38.4,0-76.7,0-115.1c-0.2-2.3,0.4-4.7,1.5-6.7c11.7-4.5,23.3-9,35-13.5c4.3-1.6,5.1,0.3,5.1,4.2
			C213.2,212.2,213.3,236.9,213.3,261.6z"/>
		<path class="st3" d="M173.2,196.9c0,38.3,0,76.6,0,114.9c0,4.5,0,8.9,0,13.4h-39.9c-1.8-1.9-1.6-4.3-1.6-6.5c0-33.1,0-66.2,0-99.4
			c-0.3-2.3,0.2-4.6,1.5-6.5L173.2,196.9z"/>
		<path class="st2" d="M388.9,117.9c0-11.8,0-23.6,0.2-35.4c0-3.6-1.2-4.5-4.6-4.5c-13,0.2-25.9,0-38.9,0.1c-3.5,0-4.7-1-4.6-4.5
			c0.2-7.6,0.2-15.2,0-22.9c0-3.3,0.8-4.7,4.3-4.6c21.7,0.2,43.6,0,65.4,0.1c13.7,0,26,12.6,26,26.3c0.1,15.2,0,30.2,0,45.3
			c-1.6,1.8-3.9,1.7-6,1.7c-12.1,0-24.1,0-36.1,0C392.8,119.5,390.6,119.7,388.9,117.9z"/>
		<path class="st1" d="M444.9,261.5h-40.1c-1.7-1.9-1.5-4.3-1.5-6.6c0-32.8,0-65.5,0-98.3c-0.3-2.3,0.1-4.7,1.3-6.7
			c1.8-1.2,4-1.7,6.1-1.5c9.4,0,18.8,0,28.2,0c2.1-0.4,4.3,0.2,6,1.6L444.9,261.5z"/>
		<path class="st2" d="M133.3,212.6v112.6H93.5c-1.8-1.9-1.6-4.3-1.6-6.5c0-28.1,0-56.2,0-84.2c-0.3-2.3,0.2-4.7,1.5-6.6l37.5-14.7
			C131.7,212.8,132.5,212.7,133.3,212.6z"/>
		<path class="st3" d="M93.3,227.7c0,32.5,0.1,65,0.2,97.4h-40c-1.8-1.9-1.5-4.3-1.5-6.5c0-22.9,0-45.9,0-68.8
			c-0.3-2.5,0.3-5,1.7-7.1L93.3,227.7z"/>
		<path class="st2" d="M53.6,242.7c0,27.5-0.1,55-0.2,82.5l-15.8,0.2c-9.1,0-18.3-0.2-27.4,0c-3.8,0.1-4.8-1.2-4.7-4.8
			c0.1-18.4,0.1-36.8,0-55.2c0-3.5,1.3-4.8,4.3-5.9C24.5,254,39.1,248.3,53.6,242.7z"/>
		<path class="st4" d="M285.1,118.1c0,47.8,0,95.5,0,143.3h-23.9c0-47.8,0-95.6,0-143.4c4.5-3.1,9.6-1.4,14.4-1.6
			C278.8,116.3,282.4,115.5,285.1,118.1z"/>
		<path class="st1" d="M389.1,420.9c0,6.5,0.1,13-0.2,19.3c-0.2,3.7,1,4.8,4.8,4.8c25-0.1,49.9,0,75,0c0,7,0,13.9,0.2,20.9
			c0,2.5-0.9,3-3.2,3c-30.9-0.2-61.8-0.2-92.8-0.2c-1.9-2.2-1.5-4.7-1.5-7.1c0-15.2-0.2-30.2,0-45.3c0.1-8.7,0.3-17.4-6-24.4
			c0.1-3.4,2.7-3.7,5.2-4c10.6-1.3,19.2,6.5,19.6,17.8C390.1,410.8,391.7,416,389.1,420.9z"/>
		<path class="st3" d="M285.1,118.1h-23.9c-10.1-1.1-16.3-7.6-16-16.7s7.5-15.2,17.4-15.2h6.5h48h6.5c9.9,0,17.1,6.3,17.4,15.2
			c0.3,8.9-6,15.8-16,16.7H285.1z"/>
		<path class="st3" d="M444.9,149.9l-40,0.1c-7.8,2.3-16.1,2.3-23.9,0c-10-1-16.3-7.6-16-16.7c0.3-9.1,7.5-15.2,17.4-15.2h6.5h48.1
			h6.5c9.9,0,17.1,6.3,17.4,15.2C461.1,142.2,454.8,149,444.9,149.9z"/>
		<path class="st4" d="M381,149.9h23.9c0,37.1,0,74.2,0,111.4H381C381,224.3,381,187.1,381,149.9z"/>
		<path class="st1" d="M357.1,468.7h-48c-1.9-2.2-1.5-4.7-1.5-7.1c0-15.2-0.2-30.2,0-45.3c0.1-8.7,0.3-17.4-6-24.4
			c0.1-3.4,2.7-3.7,5.2-4c10.6-1.3,19.1,6.5,19.5,17.8c0.2,5.1,0.2,10.3,0,15.5c-0.2,5.2,0,10.3,0,15.4c0,6.7,0.2,6.8,7.1,6.9
			c5.8,0,11.6,0,17.4,0c2.2-0.3,4.4,0.2,6.2,1.3C359.3,452.5,359.3,460.8,357.1,468.7z"/>
		<path class="st4" d="M302,391c6.5,5.7,7.3,13,7.2,21.1c-0.4,18.8-0.2,37.7-0.2,56.6h-15.8c0-7.9-0.1-15.9-0.2-23.9
			c-0.1-8,0-15.9,0-23.9c-2.5-4.8-0.9-10-1.3-15c-0.1-5.1,1.9-9.9,5.6-13.4C298.6,391.5,299.9,389.9,302,391z"/>
		<path class="st4" d="M357.1,468.7c0-7.9-0.1-15.9-0.2-23.9c-1.8-2.2-1.4-4.7-1.4-7.1c0-5.4-0.2-10.9,0-16.4c0-5.1,0-10.2,0-15.3
			c-0.1-5.1,1.9-10,5.7-13.5c1.3-1.2,2.6-2.6,4.7-1.5c6.5,5.7,7.3,13,7.2,21.1c-0.4,18.8-0.2,37.7-0.2,56.6L357.1,468.7z"/>
		<path class="st2" d="M366,391c-6.1,2.7-8.4,7.8-9.1,14c-0.4,0.3-0.7,0.8-1.2,0.9c-9.7,1.2-19.5,1.2-29.2,0c-0.5,0-0.8-0.5-1.2-0.9
			c0.6-10.1-11.8-20.7-23.2-14c-6.1,2.7-8.4,7.8-9.1,14c-10.3,4.9-23.2-1.5-24.8-12.8c-1.4-10-0.6-20.2-0.3-30.4
			c0.1-1,0.6-1.9,1.3-2.7c2.8-1.5,5.9-2.2,9.1-2c41.9,0,83.7,0,125.6,0c10.9,0,17,6.2,17,17c0,9.6,0,19.3,0,28.9
			c-0.8,1.9-2.7,3.1-4.7,3.2c-8.1,0.5-16.3,0.5-24.4,0c-1-0.1-1.9-0.6-2.6-1.3C389.8,394.9,377.3,384.4,366,391z"/>
		<path class="st5" d="M325.1,309.5c0,4.3,0,8.7,0,13c0,2.2-0.7,3-2.9,2.9c-8.7-0.1-17.4-0.1-26,0c-2.3,0-3.2-0.8-3.2-3.1
			c0.1-8.7,0-17.4,0-25.9c0-2.2,0.7-2.9,2.9-2.9c8.7,0,17.4,0,26,0c2.3,0,3.3,0.8,3.2,3.1C325,300.9,325.1,305.2,325.1,309.5z"/>
		<path class="st5" d="M389,309.9c0,4,0,8,0,12c0,2.4-0.5,3.6-3.3,3.6c-8.5-0.2-16.9-0.2-25.4,0c-2.7,0-3.4-1-3.3-3.5
			c0.1-8.3,0-16.6,0-24.9c0-2.4,0.4-3.6,3.3-3.6c8.5,0.2,17,0.1,25.4,0c2.7,0,3.4,1,3.3,3.5C388.9,301.2,389,305.5,389,309.9z"/>
		<path class="st3" d="M269.2,359.3V387c0,12.2,5.9,18.1,18.3,18.1h5.4c0,5.3,0,10.6,0,15.9c-5.6,0-11.3,0-16.9,0
			c-7.9,0.3-14.5-5.8-14.9-13.7c0-0.3,0-0.6,0-0.9c-0.1-11.6-0.2-23.2,0-34.7C261.3,366.2,263.4,361.4,269.2,359.3z"/>
		<path class="st3" d="M389.1,405c7.9,0,15.8,0,23.7,0c2.8,0.2,5.6-0.5,8-2c0.3,12.5-4.9,18-17.4,18c-4.8,0-9.6,0-14.4,0
			C389.1,415.7,389.1,410.4,389.1,405z"/>
		<path class="st5" d="M109.4,397.6c0,9-0.1,18,0,26.9c0,3.3-0.6,4.7-4.3,4.6c-7.8-0.3-15.7-0.2-23.5,0c-3.1,0-4.3-0.6-4.3-4
			c0.2-18.6,0.1-37.2,0-55.8c0-2.9,0.6-4.2,3.8-4.1c8.1,0.2,16.3,0.2,24.4,0c3.3,0,3.8,1.2,3.8,4.1
			C109.3,378.7,109.4,388.2,109.4,397.6z"/>
		<path class="st5" d="M173.3,397.3c0,9.1-0.2,18.3,0,27.4c0,3.6-1.1,4.5-4.5,4.3c-7.8-0.2-15.7-0.2-23.5,0c-2.8,0-4.1-0.5-4.1-3.8
			c0.2-18.8,0.1-37.5,0-56.3c0-2.6,0.4-3.9,3.5-3.8c8.3,0.2,16.7,0.2,25,0c2.9,0,3.6,1,3.6,3.8C173.2,378.4,173.3,387.8,173.3,397.3
			z"/>
		<path class="st0" d="M356.9,420.9c0,7.9,0,15.9,0,23.9c-9.2,0-18.5,0-27.7,0.2c-3.3,0-4.3-1.1-4.1-4.3c0.2-6.5,0.1-13.2,0.2-19.8
			c0.7-0.7,1.7-1.2,2.7-1.2c8.8-0.4,17.6-0.4,26.4,0C355.2,419.6,356.2,420.1,356.9,420.9z"/>
		<path class="st3" d="M356.9,420.9h-31.7c0-5.3,0-10.6,0-15.9h31.6L356.9,420.9z"/>
	</g>
</g>
</svg>
